<?xml version="1.0" standalone="no"?>
<!DOCTYPE svg PUBLIC "-//W3C//DTD SVG 1.1//EN" "http://www.w3.org/Graphics/SVG/1.1/DTD/svg11.dtd" >
<svg xmlns="http://www.w3.org/2000/svg">
<metadata>
This is a custom SVG webfont generated by Font Squirrel.
Copyright   : Copyright c 19992007 by Ruben Tarumian All rights reserved
Foundry     : Ruben Tarumian
</metadata>
<defs>
<font id="ArianAMURegular" horiz-adv-x="1085" >
<font-face units-per-em="2048" ascent="1638" descent="-410" />
<missing-glyph horiz-adv-x="586" />
<glyph unicode=" "  horiz-adv-x="586" />
<glyph unicode="&#x09;" horiz-adv-x="586" />
<glyph unicode="&#xa0;" horiz-adv-x="586" />
<glyph unicode="!" horiz-adv-x="486" d="M169 1141v325h214v-325l-50 -777h-111zM177 0v205h198v-205h-198z" />
<glyph unicode="&#x22;" horiz-adv-x="638" d="M90 1226v240h197v-240l-43 -279h-106zM409 1226v240h197v-240l-46 -279h-104z" />
<glyph unicode="#" horiz-adv-x="1033" d="M20 401v149h191l71 363h-262v149h291l84 429h144l-84 -429h302l84 429h145l-84 -429h166v-149h-194l-72 -363h266v-149h-295l-84 -426h-144l83 426h-302l-83 -426h-144l83 426h-162zM355 550h302l72 363h-303z" />
<glyph unicode="$" horiz-adv-x="1099" d="M70 407l174 34q10 -77 30.5 -129.5t51 -86.5t71.5 -51t93 -23v543q-87 17 -158.5 50t-123 81t-80 111t-28.5 140q0 80 24.5 148t73.5 120t122 86t170 45v126h131v-126q331 -33 376 -351l-179 -28q-14 103 -61.5 156t-135.5 71v-479q203 -48 306.5 -153t103.5 -274 q0 -97 -31 -174t-85.5 -131t-130 -82.5t-163.5 -28.5v-212h-131v210q-94 1 -171.5 35.5t-132.5 91t-85.5 130t-30.5 151.5zM273 1090q0 -50 13 -84.5t39.5 -59.5t67.5 -43.5t97 -35.5v458q-50 -8 -90 -28t-68.5 -50.5t-43.5 -70t-15 -86.5zM621 151q52 6 94.5 25.5 t73.5 51.5t48 76.5t17 100.5q0 53 -12 92.5t-39 70t-71.5 54.5t-110.5 47v-518z" />
<glyph unicode="%" horiz-adv-x="1688" d="M114 1114q0 163 74 266q79 111 222 111q137 0 219 -97q87 -104 87 -291q0 -180 -85 -283q-84 -104 -219 -104q-133 0 -212 97q-86 107 -86 301zM265 1096q0 -134 42 -198q37 -58 108 -58q69 0 107 56q43 65 43 214q0 133 -42 198q-38 59 -108 59q-68 0 -106 -56 q-44 -68 -44 -215zM409 -24l777 1515h140l-774 -1515h-143zM1024 384q0 164 74 267q80 110 223 110q137 0 219 -97q87 -104 87 -291q0 -181 -84 -284t-221 -103q-133 0 -212 97q-86 107 -86 301zM1175 366q0 -133 42 -197q39 -59 108 -59q70 0 108 56q43 65 43 214 q0 133 -42 198q-38 59 -108 59q-69 0 -107 -56q-44 -68 -44 -215z" />
<glyph unicode="&#x26;" horiz-adv-x="1251" d="M84 404q0 67 17 128t54.5 118t97.5 111t146 107q-39 49 -65.5 84t-42.5 66.5t-23 65t-7 80.5q0 65 26.5 124.5t73.5 104.5t111 71.5t139 26.5q71 0 131 -25t103.5 -67.5t68 -99.5t24.5 -121q0 -52 -16 -102.5t-50.5 -95.5t-88 -83t-128.5 -66l269 -345q43 84 68 204 l179 -40q-47 -194 -125 -316q51 -75 104.5 -127.5t100.5 -72.5l-78 -173q-31 7 -62.5 26.5t-62 48t-59.5 64t-55 73.5q-82 -95 -180.5 -146.5t-223.5 -51.5q-92 0 -173.5 33t-142 90.5t-95.5 136t-35 169.5zM271 415q0 -51 19.5 -101.5t54.5 -90t83 -64.5t104 -25 q39 0 80.5 13.5t80.5 38t73.5 57.5t59.5 72l-338 435q-67 -40 -109 -83.5t-66 -87t-33 -85.5t-9 -79zM439 1181q0 -18 5 -41t19 -51.5t39 -63.5t64 -78q57 21 94.5 47t60 55t31.5 60.5t9 63.5q0 37 -12.5 68.5t-34 54t-50.5 35t-62 12.5q-35 0 -65 -12.5t-51.5 -34.5 t-34 -51.5t-12.5 -63.5z" />
<glyph unicode="'" horiz-adv-x="315" d="M86 1221v245h197v-245l-46 -274h-106z" />
<glyph unicode="(" horiz-adv-x="531" d="M56 532q0 258 72 462q36 103 99.5 220t154.5 252h141q-57 -100 -100 -189t-72 -167q-53 -146 -74 -291q-8 -58 -12 -129t-4 -158q0 -241 54 -434q29 -105 83 -230.5t134 -274.5h-135q-181 253 -264 487q-77 219 -77 452z" />
<glyph unicode=")" horiz-adv-x="531" d="M6 -407q80 149 134 274.5t83 230.5q54 193 54 434q0 87 -4 158t-12 129q-21 145 -74 291q-29 78 -72 167t-100 189h141q91 -135 154.5 -252t99.5 -220q72 -204 72 -462q0 -233 -77 -452q-83 -234 -264 -487h-135z" />
<glyph unicode="*" horiz-adv-x="744" d="M32 1206l45 142l250 -106l-21 274h139l-20 -273l250 102l44 -142l-262 -62l183 -211l-118 -85l-147 237l-136 -238l-119 85l177 212z" />
<glyph unicode="+" horiz-adv-x="1088" d="M109 639v168h383v399h164v-399h383v-168h-383v-402h-164v402h-383z" />
<glyph unicode="," horiz-adv-x="486" d="M163 -213q56 25 83 73.5t27 139.5h-98v205h197v-205q0 -101 -37 -172q-41 -80 -124 -118z" />
<glyph unicode="-" horiz-adv-x="595" d="M82 440v181h492v-181h-492z" />
<glyph unicode="." horiz-adv-x="535" d="M179 0v205h196v-205h-196z" />
<glyph unicode="/" horiz-adv-x="486" d="M0 -25l408 1516h138l-407 -1516h-139z" />
<glyph unicode="0" horiz-adv-x="1200" d="M84 722q0 87 7 178t27 176.5t54.5 160.5t90.5 131t135 88.5t187 32.5t187.5 -33.5t135.5 -90.5t91 -133t55 -161t27 -175t7 -174q0 -85 -7 -173t-27 -171t-55 -156.5t-91 -128t-135.5 -86.5t-187.5 -32t-187 31t-135 84.5t-90.5 126t-54.5 155.5t-27 172.5t-7 177.5z M269 722q0 -67 3.5 -136.5t15 -134.5t33 -122.5t56.5 -100t86 -67.5t122 -25t122.5 25t87 67.5t57 100t33 122.5t15.5 134.5t4 136.5t-4 137.5t-15.5 138t-33 127.5t-57 104.5t-87 71t-123.5 26.5t-123 -26.5t-86 -71t-56 -104.5t-32 -127.5t-14.5 -138t-3.5 -137.5z" />
<glyph unicode="1" horiz-adv-x="1200" d="M388 1297v169h423v-1466h-172v1297h-251z" />
<glyph unicode="2" horiz-adv-x="1200" d="M160 0v171q68 43 144 99t151 121.5t144 139t121.5 152t83.5 159.5t31 161q0 74 -25 132.5t-67 99.5t-97 63t-116 22q-84 0 -139 -19t-93 -48l-112 120q63 59 147 88.5t200 29.5q108 0 196.5 -38t151.5 -104t97.5 -156.5t34.5 -195.5q0 -88 -27.5 -171.5t-74.5 -162 t-108.5 -149.5t-129.5 -133t-138.5 -113.5t-134.5 -89.5v-5h620v-173h-860z" />
<glyph unicode="3" horiz-adv-x="1200" d="M141 145l132 117q19 -27 47 -49t63 -37t75 -23.5t82 -8.5q61 0 121 16.5t107 54t76.5 97t29.5 146.5t-32.5 148t-80.5 99.5t-104 56.5t-104 18h-37v152h34q46 0 85.5 14.5t68.5 41t45.5 64.5t16.5 86t-18 83.5t-49 59.5t-72 36t-87 12q-71 0 -123 -22.5t-84 -73.5 l-154 89q57 84 151 126.5t228 42.5q79 0 150.5 -25.5t125.5 -72t85.5 -110.5t31.5 -140q0 -55 -14.5 -99t-38.5 -78t-54.5 -57.5t-62.5 -38.5v-3q42 -12 91 -43.5t90.5 -82.5t69 -121t27.5 -160q0 -111 -44 -200.5t-116 -152.5t-165 -97t-192 -34q-123 0 -227.5 42 t-173.5 127z" />
<glyph unicode="4" horiz-adv-x="1200" d="M96 351v165q134 253 310 493.5t382 456.5h142v-950h150v-165h-150v-351h-173v351h-661zM276 516h481v681h-2q-63 -68 -128.5 -149.5t-128 -170t-119.5 -180.5t-103 -181z" />
<glyph unicode="5" horiz-adv-x="1200" d="M112 204l151 100q30 -56 65 -87.5t72.5 -48t76.5 -20.5t75 -4q65 0 124.5 17t104.5 54.5t71.5 97t26.5 143.5q0 75 -21.5 136t-61.5 104.5t-96 67t-125 23.5q-84 0 -146 -32t-109 -89h-168v800h829v-175h-647v-436q22 20 52.5 35t65 25.5t70 16t68.5 5.5q96 0 182.5 -28 t152 -86t104 -145.5t38.5 -205.5q0 -121 -39.5 -213.5t-109.5 -155.5t-166.5 -95t-209.5 -32q-57 0 -116 10t-115.5 35.5t-107 69.5t-91.5 113z" />
<glyph unicode="6" horiz-adv-x="1200" d="M127 666q0 225 44 382.5t120.5 255.5t180.5 142.5t224 44.5q105 0 186.5 -25.5t133.5 -61.5l-82 -140q-49 32 -104.5 48.5t-122.5 16.5q-94 0 -168 -33t-126.5 -104t-82.5 -181.5t-35 -266.5h1q30 46 70.5 81.5t89 60.5t102.5 38t111 13q104 0 191.5 -32t150.5 -91.5 t98.5 -145t35.5 -192.5q0 -108 -40.5 -200t-109.5 -159t-159.5 -105t-189.5 -38q-62 0 -124.5 13t-120 44.5t-107.5 83t-87 128t-58.5 181.5t-21.5 242zM339 466q0 -82 25.5 -143t68 -101t98.5 -60t116 -20q66 0 123 21t99 63t66.5 104t24.5 145q0 67 -21.5 123.5t-61 98 t-95.5 64.5t-125 23q-73 0 -132 -23t-100 -64.5t-63.5 -100t-22.5 -130.5z" />
<glyph unicode="7" horiz-adv-x="1200" d="M144 1293v173h911v-140q-101 -164 -188.5 -327.5t-159 -329t-124.5 -332.5t-84 -337h-201q36 163 88 325.5t122.5 324.5t161 323t203.5 320h-729z" />
<glyph unicode="8" horiz-adv-x="1200" d="M84 460q0 70 19.5 133t54 115t81.5 92t102 64q-35 19 -64 47.5t-50 63t-32.5 74.5t-11.5 84q0 83 32 149.5t88 113t131 71t162 24.5t162.5 -25.5t130.5 -72t86.5 -113t31.5 -147.5q0 -86 -44 -155t-113 -113q56 -22 104.5 -62t84 -92.5t56 -116.5t20.5 -134 q0 -110 -41 -199t-111.5 -152.5t-164.5 -98t-200 -34.5t-199.5 34.5t-163.5 97.5t-110.5 152.5t-40.5 199.5zM269 468q0 -74 21.5 -133.5t63 -102t102.5 -65.5t140 -23t141 23t105 65.5t65.5 102t22.5 133.5q0 73 -27.5 131t-74 97.5t-106.5 60.5t-126 21t-125 -21 t-104 -60.5t-71.5 -97.5t-26.5 -131zM368 1128q0 -48 17 -84.5t47 -61.5t71.5 -38t90.5 -13t91 13t72.5 38t47.5 61.5t17 84.5t-17 85t-47 63t-71.5 39.5t-90.5 13.5q-48 0 -90 -13.5t-72.5 -39.5t-48 -63t-17.5 -85z" />
<glyph unicode="9" horiz-adv-x="1200" d="M79 988q0 108 40.5 200t109.5 159t159.5 105t189.5 38q62 0 124.5 -13t120 -44.5t107.5 -83t87 -128t58.5 -181.5t21.5 -242q0 -225 -44 -382.5t-120.5 -255.5t-180.5 -142.5t-224 -44.5q-105 0 -186.5 25.5t-133.5 61.5l82 140q49 -32 104.5 -48.5t122.5 -16.5 q94 0 168 33t126.5 104t82.5 181.5t35 266.5h-1q-30 -46 -70.5 -82t-89 -60.5t-102.5 -37.5t-111 -13q-104 0 -191.5 32t-150.5 91.5t-98.5 145t-35.5 192.5zM264 989q0 -67 21.5 -123.5t61 -98t95.5 -64.5t125 -23q73 0 132 23t100 64.5t63.5 100t22.5 130.5 q0 82 -25.5 143t-68 101t-98.5 60t-116 20q-66 0 -123 -21t-99 -63t-66.5 -104.5t-24.5 -144.5z" />
<glyph unicode=":" horiz-adv-x="535" d="M178 0v205h196v-205h-196zM178 857v205h196v-205h-196z" />
<glyph unicode=";" horiz-adv-x="535" d="M163 -213q55 24 81 74q14 26 21.5 60t7.5 79h-98v205h197v-205q0 -112 -38 -182t-123 -108zM175 857v205h197v-205h-197z" />
<glyph unicode="&#x3c;" horiz-adv-x="1088" d="M108 641v168l932 410v-179l-740 -316l740 -319v-179z" />
<glyph unicode="=" horiz-adv-x="1088" d="M109 417v168h930v-168h-930zM109 862v168h930v-168h-930z" />
<glyph unicode="&#x3e;" horiz-adv-x="1088" d="M108 226v179l738 319l-738 316v179l932 -410v-168z" />
<glyph unicode="?" horiz-adv-x="1033" d="M86 1062q0 91 34.5 169.5t95 136t144 90.5t182.5 33t182 -30t143 -83.5t94 -126.5t34 -160q0 -60 -16 -108.5t-42.5 -89.5t-60.5 -77.5t-69 -72.5t-69 -74.5t-60.5 -84t-42.5 -100t-16 -123.5h-166q0 114 27 194.5t67.5 140t87.5 104t87.5 86t67.5 87t27 106.5 q0 52 -21.5 100t-58.5 84.5t-86.5 58t-105.5 21.5q-58 0 -109 -18.5t-89.5 -54.5t-60.5 -88.5t-22 -119.5h-178zM443 0v195h186v-195h-186z" />
<glyph unicode="@" horiz-adv-x="1984" d="M101 469q0 143 30.5 274t88 245t141 207t190 159.5t234 101t273.5 34.5q172 0 321.5 -54.5t260.5 -157t174.5 -246.5t63.5 -319q0 -77 -19.5 -160.5t-56 -163t-88 -151t-116 -125.5t-140 -85.5t-158.5 -31.5q-95 0 -140 40t-45 127q-64 -78 -140 -122t-155 -44 q-74 0 -137.5 34.5t-110 94.5t-73.5 142t-27 178q0 79 16.5 157t47.5 148.5t75.5 131.5t99.5 105.5t120.5 70t139.5 25.5q85 0 159.5 -45.5t129.5 -138.5l33 162h172l-155 -753q-5 -22 -6.5 -38.5t-1.5 -29.5q0 -42 16 -60t47 -18q54 0 103 28t90 74t74 104.5t56 120 t35.5 120.5t12.5 106q0 141 -55.5 257t-150 199t-219 127.5t-262.5 44.5q-121 0 -227.5 -29.5t-196 -85.5t-160.5 -134.5t-120.5 -174.5t-75.5 -206t-26 -229q0 -182 57 -324.5t164.5 -241t261.5 -150.5t349 -52q102 0 199 17t184 47.5t161.5 83.5t131.5 133h174 q-59 -116 -151 -196.5t-204 -130t-238.5 -76t-253.5 -26.5q-223 0 -403.5 62t-308 178t-196.5 283t-69 377zM650 434q0 -63 15.5 -116t43 -91.5t65 -60t81.5 -21.5q63 0 125.5 40t113 108.5t81.5 160t31 193.5q0 66 -15.5 119t-44.5 90.5t-70 58t-93 20.5q-68 0 -128 -37.5 t-106 -104t-72.5 -158.5t-26.5 -201z" />
<glyph unicode="A" horiz-adv-x="1288" d="M0 0q23 113 51 223t61 220q12 41 25 80.5t27 80.5q74 217 165.5 430t202.5 432h219q113 -220 203.5 -435t163.5 -432q14 -40 27 -80t25 -80q34 -111 63 -220t55 -219h-192q-21 106 -48 219t-69 225h-669q-38 -112 -69.5 -222t-52.5 -222h-188zM356 602h577 q-36 97 -66.5 180t-63.5 162.5t-71.5 162t-89.5 178.5h-1q-50 -96 -89 -183t-73 -169.5t-63.5 -164t-59.5 -166.5z" />
<glyph unicode="B" horiz-adv-x="1255" d="M150 0v1466h518q109 0 194.5 -31t143.5 -82.5t88.5 -119.5t30.5 -142q0 -100 -41.5 -181t-135.5 -130l1 -3q54 -23 96.5 -60t71 -82t43.5 -94.5t15 -95.5q0 -102 -36.5 -184.5t-102 -140t-156.5 -89t-201 -31.5h-529zM336 173h343q55 0 109.5 14t97.5 45t69.5 81 t26.5 122q0 59 -21 104t-59 76t-91.5 46.5t-118.5 15.5h-199v173h197q63 0 110 17t78.5 47t47 72t15.5 92q0 52 -21.5 92t-62 67.5t-99 41.5t-131.5 14h-291v-1120z" />
<glyph unicode="C" horiz-adv-x="1431" d="M60 744q0 152 44 288t129 238t208.5 161.5t282.5 59.5q121 0 219 -29t173.5 -84t128.5 -134.5t85 -181.5h-194q-26 64 -67 113t-94.5 82t-118 50t-136.5 17q-123 0 -211.5 -48.5t-145.5 -129.5t-84 -185.5t-27 -215.5q0 -146 37.5 -258.5t103 -189t154 -116.5t189.5 -40 q94 0 166.5 24.5t126 69.5t88 108.5t51.5 140.5h203q-21 -90 -69.5 -180.5t-126.5 -163.5t-187 -119t-251 -46q-140 0 -263 54t-215 154t-145.5 242t-53.5 319z" />
<glyph unicode="D" horiz-adv-x="1443" d="M150 0v1466h532q167 0 297.5 -54t220 -150t136.5 -229t47 -292q0 -158 -45.5 -293t-132 -235t-212.5 -156.5t-287 -56.5h-556zM336 173h348q111 0 204.5 35t160.5 106t104.5 178.5t37.5 251.5q0 119 -34 220t-99.5 174t-160.5 114t-217 41h-344v-1120z" />
<glyph unicode="E" horiz-adv-x="1280" d="M150 0v1466h1017v-172h-831v-444h728v-173h-728v-504h864v-173h-1050z" />
<glyph unicode="F" horiz-adv-x="1150" d="M150 0v1466h950v-172h-764v-444h661v-173h-661v-677h-186z" />
<glyph unicode="G" horiz-adv-x="1481" d="M60 726q0 177 48.5 318.5t138 240.5t215.5 152.5t282 53.5q115 0 208.5 -31.5t167.5 -88.5t129 -136t93 -173h-198q-20 51 -60 98t-93.5 83t-117 57.5t-128.5 21.5q-119 0 -210.5 -40.5t-154 -118t-94.5 -190t-32 -255.5q0 -131 34 -238t99 -182.5t158.5 -117.5 t212.5 -42q54 3 105 7.5t102.5 15.5t104 30.5t109.5 51.5v332h-484v173h666v-588q-140 -95 -293 -140t-309 -45q-151 0 -279 54t-221.5 153t-146 237.5t-52.5 306.5z" />
<glyph unicode="H" horiz-adv-x="1404" d="M150 0v1466h186v-616h731v616h187v-1466h-187v677h-731v-677h-186z" />
<glyph unicode="I" horiz-adv-x="487" d="M150 0v1466h187v-1466h-187z" />
<glyph unicode="J" horiz-adv-x="486" d="M-131 -125h71q113 0 161.5 67t48.5 201v1323h186v-1312q0 -107 -21 -191t-68.5 -142t-122.5 -88.5t-183 -30.5h-72v173z" />
<glyph unicode="K" horiz-adv-x="1314" d="M150 0v1466h186v-627q31 0 79 20t106.5 58.5t125 93.5t134 124.5t137.5 153t137 177.5h203q-106 -152 -200.5 -264.5t-182 -195t-163 -139.5t-157.5 -96q56 -17 105 -43t107 -66.5t119.5 -97.5t128.5 -137t141 -185.5t158 -241.5h-209q-128 199 -234.5 329.5t-199 207.5 t-174.5 108t-161 31v-676h-186z" />
<glyph unicode="L" horiz-adv-x="1029" d="M150 0v1466h186v-1293h693v-173h-879z" />
<glyph unicode="M" horiz-adv-x="1649" d="M150 0v1466h201q153 -212 272 -439.5t193 -477.5h4q86 250 201.5 477t271.5 440h206v-1466h-185v1187q-66 -96 -121.5 -200t-105 -214.5t-94.5 -227t-88 -237.5h-168q-39 120 -82 235t-92 225t-106.5 215t-126.5 205v-1188h-180z" />
<glyph unicode="N" horiz-adv-x="1409" d="M150 0v1466h191q216 -283 403 -564.5t335 -576.5h1v1141h179v-1466h-191q-152 312 -340.5 618t-399.5 584v-1202h-178z" />
<glyph unicode="O" horiz-adv-x="1446" d="M50 714q0 359 187 570q184 207 487 207q290 0 481 -213t191 -547q0 -328 -197 -544q-193 -212 -476 -212q-289 0 -484 223q-189 216 -189 516zM242 711q0 -259 135 -413q132 -151 345 -151q217 0 346 149q136 157 136 436q0 265 -133 426t-346 161q-214 0 -339 -137 q-144 -157 -144 -471z" />
<glyph unicode="P" horiz-adv-x="1194" d="M150 0v1466h481q132 0 233.5 -39t170 -103.5t104 -148t35.5 -171.5q0 -106 -39 -185.5t-102.5 -133t-146 -80t-169.5 -26.5q-77 0 -149 24t-143 76l82 149q54 -42 104.5 -59t103.5 -17q51 0 99 18.5t85.5 51.5t60 78t22.5 98q0 74 -28.5 129.5t-75 92t-107 55 t-125.5 18.5h-310v-1293h-186z" />
<glyph unicode="Q" horiz-adv-x="1513" d="M50 714q0 359 187 570q184 207 487 207q290 0 481 -213t191 -547q0 -305 -171 -514q75 -93 138.5 -189.5t99.5 -182.5l-155 -85q-31 79 -85 165.5t-122 171.5q-163 -122 -378 -122q-289 0 -484 223q-189 216 -189 516zM242 711q0 -259 135 -413q132 -151 345 -151 q157 0 269 78q-46 48 -91.5 90.5t-89.5 75.5l108 133q42 -30 91 -74.5t100 -98.5q95 148 95 381q0 265 -133 426t-346 161q-214 0 -339 -137q-144 -157 -144 -471z" />
<glyph unicode="R" horiz-adv-x="1319" d="M150 0v1466h494q108 0 205.5 -31t170.5 -90t116 -145t43 -196q0 -61 -20 -123.5t-63 -115t-111 -90.5t-163 -50q27 -23 60.5 -55.5t66 -66t59 -63.5t38.5 -47l273 -393h-219l-230 326q-63 89 -126.5 150t-121 101t-107 63.5t-85.5 38.5l82 149q51 -39 102 -56.5t99 -18.5 q57 0 106.5 20.5t87 55t59 80t21.5 95.5q0 57 -25 111t-69.5 95.5t-106 62t-135.5 21.5h-315v-1294h-186z" />
<glyph unicode="S" horiz-adv-x="1261" d="M80 471h176q2 -65 32.5 -128t82 -106t120.5 -65.5t147 -22.5t147.5 13.5t122 44.5t83 80t30.5 121t-30.5 123.5t-83 85.5t-122 50t-147.5 16q-99 0 -190 20.5t-161 67t-111.5 121.5t-41.5 185q0 89 37.5 164.5t104 131t159 87t203.5 31.5q121 0 217.5 -33.5t163.5 -92.5 t103 -139t36 -165h-178q-4 52 -28 105.5t-67.5 87.5t-105.5 50t-141 16q-78 0 -138 -18.5t-101.5 -51.5t-63 -77.5t-21.5 -95.5q0 -48 13.5 -89t49.5 -70t99 -45.5t162 -16.5q132 0 236 -32.5t177 -91.5t111.5 -141.5t38.5 -182.5t-40 -180t-113.5 -136.5t-177.5 -86.5 t-232 -30t-231 38t-176 105t-112 157.5t-39 195.5z" />
<glyph unicode="T" horiz-adv-x="1156" d="M20 1293v173h1116v-173h-466v-1293h-186v1293h-464z" />
<glyph unicode="U" horiz-adv-x="1406" d="M150 565v901h185v-907q0 -196 116 -310q104 -102 253 -102q144 0 251 108q114 115 114 284v927h187v-921q0 -233 -150 -379q-179 -191 -402 -191q-221 0 -381 156q-173 169 -173 434z" />
<glyph unicode="V" horiz-adv-x="1287" d="M0 1466h191q74 -333 186 -657t264 -648q81 163 148.5 325t123 324.5t101 325.5t83.5 330h190q-48 -189 -104 -374t-123 -368t-147.5 -363.5t-176.5 -360.5h-191q-97 181 -178 363.5t-148 365.5t-121 367t-98 370z" />
<glyph unicode="W" horiz-adv-x="1810" d="M0 1466h193q20 -188 51.5 -366t69 -338.5t79.5 -299t83 -247.5q42 109 82.5 248.5t77.5 300t69.5 338t59.5 364.5h276q20 -188 51.5 -366t69 -338.5t79.5 -299t83 -247.5q42 109 82.5 248.5t77.5 300t69.5 338t59.5 364.5h200q-30 -193 -69.5 -388t-87.5 -383 t-104.5 -364t-121.5 -331h-204q-52 115 -104.5 258.5t-97 301t-77.5 320.5t-46 317q-21 -154 -55 -317t-76.5 -319.5t-90.5 -300.5t-97 -260h-204q-69 153 -128.5 329t-107 364t-83.5 383.5t-59 389.5z" />
<glyph unicode="X" horiz-adv-x="1230" d="M0 0q44 118 101 221t122.5 196t137 178.5t144.5 167.5q-66 82 -130 165t-122.5 170t-109 178.5t-89.5 189.5h202q33 -84 74.5 -159t88.5 -145t98.5 -135.5t106.5 -130.5q57 65 112 131t105.5 136t95.5 145t82 158h182q-39 -98 -91 -189.5t-113 -177.5t-128 -168.5 t-136 -162.5q67 -78 134 -161.5t130.5 -176.5t122.5 -199.5t110 -230.5h-201q-36 85 -83 165.5t-100.5 158t-112 153.5t-119.5 152q-65 -75 -126.5 -151t-116 -154t-100 -158.5t-78.5 -165.5h-193z" />
<glyph unicode="Y" horiz-adv-x="1290" d="M0 1466h196q41 -104 91 -189.5t106 -159t118.5 -138.5t128.5 -128q69 64 131.5 130t119.5 140.5t107.5 159t94.5 185.5h197q-54 -112 -112 -211.5t-125.5 -192t-147 -180t-177.5 -176.5v-706h-186v706q-91 88 -165.5 168.5t-139 168.5t-122.5 190t-115 233z" />
<glyph unicode="Z" horiz-adv-x="1213" d="M50 0v180q67 130 155.5 269.5t195 281.5t229 284t257.5 278h-755v173h1008v-173q-295 -289 -514 -568t-362 -552h899v-173h-1113z" />
<glyph unicode="[" horiz-adv-x="486" d="M133 -407v1873h382v-149h-209v-1575h209v-149h-382z" />
<glyph unicode="\" horiz-adv-x="557" d="M0 1491h139l407 -1516h-138z" />
<glyph unicode="]" horiz-adv-x="486" d="M37 -258h209v1575h-209v149h382v-1873h-382v149z" />
<glyph unicode="^" horiz-adv-x="863" d="M52 690l339 801h139l341 -801h-174l-237 597l-231 -597h-177z" />
<glyph unicode="_" horiz-adv-x="1033" d="M-30 -277h1146v-130h-1146v130z" />
<glyph unicode="`" horiz-adv-x="458" d="M92 1574l182 52l236 -446l-148 -56z" />
<glyph unicode="a" horiz-adv-x="1089" d="M80 280q0 79 30.5 140.5t84.5 104t127.5 65t158.5 22.5h308v109q0 49 -15 89t-45 68t-76 43.5t-108 15.5q-118 0 -186 -41.5t-88 -136.5h-161q31 167 143 247t317 80q107 0 182 -27.5t122 -77t68.5 -117.5t21.5 -149v-715h-160v131q-47 -42 -91.5 -71t-90 -48 t-93.5 -27.5t-100 -8.5q-81 0 -146 21.5t-110 61.5t-69 96t-24 125zM264 285q0 -75 53 -121.5t153 -46.5q72 0 131 24.5t101 64t64.5 89t22.5 99.5v78h-282q-62 0 -107.5 -14.5t-75.5 -40t-45 -59.5t-15 -73z" />
<glyph unicode="b" horiz-adv-x="1089" d="M135 0v1466h172v-523q110 143 280 143q99 0 178.5 -39.5t136 -111t87 -170.5t30.5 -218q0 -127 -32 -232t-90 -180.5t-139.5 -117t-179.5 -41.5q-180 0 -283 157v-133h-160zM293 539q0 -200 71.5 -307.5t199.5 -107.5q64 0 115.5 28.5t87.5 82t55.5 129t19.5 168.5 q0 96 -19 171.5t-54.5 127.5t-85.5 79.5t-112 27.5q-65 0 -116.5 -28t-87.5 -79.5t-55 -125.5t-19 -166z" />
<glyph unicode="c" horiz-adv-x="1049" d="M60 527q0 134 34.5 238t96.5 175.5t147 108.5t186 37q179 0 296 -85.5t169 -250.5h-186q-18 52 -46.5 87.5t-63.5 58t-76 32.5t-86 10q-72 0 -126.5 -28.5t-92 -81t-56.5 -128t-19 -168.5q0 -101 21 -177t58.5 -127.5t90 -77.5t115.5 -26q49 0 92.5 10.5t79.5 33.5t64 60 t45 90h186q-20 -80 -60.5 -143.5t-100 -107.5t-136.5 -67.5t-169 -23.5q-108 0 -194 38t-146 109.5t-91.5 173.5t-31.5 230z" />
<glyph unicode="d" horiz-adv-x="1079" d="M60 530q0 240 121 397q121 159 310 159q91 0 161 -38t121 -108v526h171v-1466h-160v134q-96 -158 -285 -158q-182 0 -308 152q-131 160 -131 402zM238 530q0 -195 81 -304q75 -102 196 -102q118 0 192 95q80 104 80 296q0 207 -80 319q-73 103 -199 103q-122 0 -192 -97 q-78 -107 -78 -310z" />
<glyph unicode="e" horiz-adv-x="1079" d="M60 522q0 132 34 236.5t96 177t150 111.5t196 39q106 0 195 -39t153 -111t99.5 -174t35.5 -229v-48h-780q0 -78 19.5 -144t58.5 -114t96.5 -75.5t133.5 -27.5q97 0 162 52.5t97 141.5h184q-18 -74 -56.5 -136.5t-95 -108.5t-130.5 -71.5t-162 -25.5q-117 0 -208 37.5 t-152.5 108t-93.5 171.5t-32 229zM248 633h579q-13 153 -88.5 229t-200.5 76q-62 0 -115 -23t-92 -63.5t-61 -96.5t-22 -122z" />
<glyph unicode="f" horiz-adv-x="606" d="M30 922v140h153v113q0 140 62 222q72 94 220 94q72 0 161 -18l-26 -157q-56 10 -101 10q-80 0 -110 -32q-34 -35 -34 -134v-98h198v-140h-198v-922h-172v922h-153z" />
<glyph unicode="g" horiz-adv-x="1094" d="M60 537q0 118 32.5 219t91 174t139.5 114.5t179 41.5q179 0 298 -152v128h159v-918q0 -129 -30.5 -235t-93.5 -182t-159 -117.5t-228 -41.5h-88v145h87q77 0 139 22.5t106 72.5t67.5 131.5t23.5 199.5q-112 -139 -282 -139q-99 0 -180 39.5t-139 111t-90 170t-32 216.5z M238 550q0 -196 72 -298.5t207 -102.5q65 0 117 26.5t88.5 77.5t56 124.5t19.5 166.5q0 90 -20 162.5t-57 123.5t-89.5 79t-117.5 28q-63 0 -114 -27t-87 -77t-55.5 -121.5t-19.5 -161.5z" />
<glyph unicode="h" d="M135 0v1466h171v-533q116 153 306 153q154 0 244 -84q104 -97 104 -294v-708h-172v649q0 140 -51 211t-160 71q-106 0 -178 -64q-93 -83 -93 -248v-619h-171z" />
<glyph unicode="i" horiz-adv-x="442" d="M135 0v1062h172v-1062h-172zM135 1259v207h172v-207h-172z" />
<glyph unicode="j" horiz-adv-x="442" d="M-61 -291h91q32 0 52.5 19.5t32 52t16 75.5t4.5 90v1116h172v-1120q0 -86 -13 -154.5t-43 -117.5t-79 -75t-121 -26h-112v140zM135 1257v209h172v-209h-172z" />
<glyph unicode="k" horiz-adv-x="979" d="M135 0v1466h172v-836q119 88 225 196.5t194 235.5h214q-86 -112 -185 -220.5t-199 -205.5q68 -77 126 -153t109.5 -154t97.5 -160t90 -169h-213q-30 69 -64.5 135t-75 131t-88 129.5t-104.5 129.5q-33 -29 -65 -55t-62 -49v-421h-172z" />
<glyph unicode="l" horiz-adv-x="443" d="M135 0v1466h173v-1466h-173z" />
<glyph unicode="m" horiz-adv-x="1641" d="M135 0v1062h154v-149q49 79 127 125q82 48 182 48q221 0 288 -186q121 186 315 186q152 0 233.5 -90t81.5 -267v-729h-172v669q0 70 -10.5 119.5t-32 81t-56 46t-82.5 14.5q-114 0 -178 -73q-72 -81 -72 -240v-617h-173v690q0 113 -41 174q-45 66 -139 66 q-75 0 -135.5 -39.5t-89.5 -117.5q-14 -40 -21 -93.5t-7 -128.5v-551h-172z" />
<glyph unicode="n" d="M135 0v1062h153v-156q119 180 324 180q154 0 244 -84q104 -97 104 -294v-708h-172v649q0 140 -51 211t-160 71q-106 0 -178 -64q-93 -83 -93 -248v-619h-171z" />
<glyph unicode="o" horiz-adv-x="1075" d="M60 531q0 262 133 411q129 144 345 144q213 0 343 -142q134 -147 134 -398q0 -287 -134 -434q-124 -136 -343 -136q-218 0 -345 141q-133 147 -133 414zM238 531q0 -197 84 -305q80 -102 216 -102q135 0 215 102q85 109 85 311q0 191 -85 298q-81 102 -215 102 q-135 0 -214 -99q-86 -107 -86 -307z" />
<glyph unicode="p" horiz-adv-x="1080" d="M135 -407v1469h154v-138q57 82 127 122t172 40q189 0 311 -155q121 -154 121 -392q0 -235 -131 -399t-314 -164q-84 0 -152.5 35.5t-116.5 98.5v-517h-171zM291 525q0 -196 79 -302q73 -99 194 -99q122 0 197 101q82 110 82 315q0 194 -79 303q-74 102 -193 102 q-116 0 -194 -106q-86 -116 -86 -314z" />
<glyph unicode="q" horiz-adv-x="1081" d="M60 541q0 235 122 390t308 155q192 0 301 -166v142h155v-1469h-173v520q-41 -59 -114 -98q-74 -39 -155 -39q-187 0 -312 149q-132 157 -132 416zM238 534q0 -195 81 -306q77 -104 199 -104q115 0 189 96q81 106 81 298q0 202 -83 318q-77 108 -198 108q-119 0 -190 -98 q-79 -109 -79 -312z" />
<glyph unicode="r" horiz-adv-x="689" d="M135 0v1062h155v-161q42 91 98.5 138t122.5 47q87 0 178 -58l-60 -167q-63 39 -127 39q-195 0 -195 -344v-556h-172z" />
<glyph unicode="s" horiz-adv-x="967" d="M60 317l171 28q15 -108 80.5 -164.5t183.5 -56.5q57 0 101 12.5t74 35t45 53.5t15 68q0 56 -43 90q-26 20 -72 37t-113 30q-228 45 -324 126q-89 75 -89 204t93 213q103 93 283 93q179 0 279.5 -72t124.5 -226l-169 -24q-12 82 -67.5 128t-155.5 46q-110 0 -168 -40 q-53 -38 -53 -97q0 -53 46 -86q67 -47 259 -89q166 -37 250 -105q96 -80 96 -209q0 -139 -106 -233q-115 -103 -305 -103q-195 0 -300.5 84t-135.5 257z" />
<glyph unicode="t" horiz-adv-x="567" d="M30 922v140h126v263l172 108v-371h174v-140h-174v-621q0 -81 15 -109q20 -38 83 -38q16 0 34.5 1.5t41.5 5.5l25 -159q-38 -8 -71 -12t-60 -4q-133 0 -188 66q-52 61 -52 199v671h-126z" />
<glyph unicode="u" d="M125 354v708h171v-649q0 -141 51 -211.5t161 -70.5q106 0 178 64q92 82 92 248v619h172v-1062h-153v156q-119 -180 -324 -180q-154 0 -244 84q-104 97 -104 294z" />
<glyph unicode="v" horiz-adv-x="935" d="M0 1062h172q54 -237 131 -452t164 -408q93 191 169.5 408t130.5 452h168q-65 -284 -159.5 -550t-226.5 -512h-161q-60 126 -115 254.5t-104.5 260.5t-92 268.5t-76.5 278.5z" />
<glyph unicode="w" horiz-adv-x="1398" d="M0 1062h172q39 -228 97.5 -438t131.5 -403q81 196 131.5 407t83.5 434h178q14 -114 32.5 -225.5t43 -218t56 -206t71.5 -187.5q77 189 137 403t102 434h162q-46 -276 -132 -541t-196 -521h-170q-37 100 -67 181.5t-54.5 160t-44 162.5t-35.5 189q-23 -105 -45.5 -188 t-47 -161.5t-53 -160.5t-63.5 -183h-170q-109 260 -191.5 523.5t-128.5 538.5z" />
<glyph unicode="x" horiz-adv-x="955" d="M0 0q26 71 66.5 139.5t90 135t105 131.5t112.5 130q-57 64 -111 129t-100 130.5t-81 132t-54 134.5h176q18 -51 47 -101.5t65 -101t78 -101t87 -101.5q87 100 159.5 200.5t114.5 204.5h173q-21 -71 -56 -138t-80 -132t-97 -128.5t-107 -125.5q58 -65 114.5 -130.5 t105 -132.5t87 -135.5t60.5 -139.5h-183q-47 108 -124.5 210.5t-167.5 205.5q-90 -103 -169.5 -205t-130.5 -211h-180z" />
<glyph unicode="y" horiz-adv-x="934" d="M0 1062h176q52 -218 131 -432.5t174 -428.5h1q93 215 163.5 428.5t119.5 432.5h169q-72 -310 -187 -623.5t-269 -633.5q-55 -115 -141.5 -175.5t-185.5 -60.5h-69v140h38q36 0 72 16.5t69 48t61.5 77.5t49.5 105l16 44q-125 267 -220 531.5t-168 530.5z" />
<glyph unicode="z" horiz-adv-x="1023" d="M60 0v146q58 94 121.5 188.5t138.5 190.5t164 193.5t199 196.5l-1 1h-583v146h833v-119q-98 -98 -195 -195.5t-184 -195.5t-159.5 -196.5t-121.5 -198.5l2 -2h689v-155h-903z" />
<glyph unicode="{" horiz-adv-x="597" d="M55 449v163q110 0 153 82q45 82 45 304q0 81 1.5 136.5t5.5 86.5q15 126 65 190q65 80 193 80h93v-157h-30q-101 0 -131 -34q-34 -38 -34 -171q0 -134 -3 -216.5t-8 -114.5q-8 -53 -23 -93.5t-35 -69.5q-41 -59 -132 -105q105 -45 153 -141t48 -309q0 -247 23 -301 q24 -53 142 -53h30v-157h-54q-148 0 -219 68q-60 58 -76 175q-9 64 -9 237q0 228 -41 315q-40 85 -157 85z" />
<glyph unicode="|" horiz-adv-x="501" d="M180 -431v1922h151v-1922h-151z" />
<glyph unicode="}" horiz-adv-x="597" d="M45 -273h30q101 0 131 34q34 38 34 171q0 134 3 216.5t8 114.5q16 104 57 163q40 58 133 105q-105 45 -153 139t-48 311q0 246 -24 300t-141 54h-30v157h54q148 0 219 -68q58 -55 75 -175q9 -65 9 -237q0 -227 41 -314q42 -86 158 -86v-163q-110 0 -153 -79 q-46 -83 -46 -307q0 -171 -6 -223q-14 -126 -66 -190q-65 -80 -193 -80h-92v157z" />
<glyph unicode="~" horiz-adv-x="1088" d="M84 557v205q101 120 266 120q78 0 171 -34q39 -17 79 -33.5t82 -33.5q84 -33 136 -33q30 0 62 10t64.5 28t63.5 43.5t58 55.5v-212q-59 -59 -122.5 -86.5t-143.5 -27.5q-72 0 -154 33q-42 17 -82.5 33.5t-82.5 33.5q-81 34 -147 34q-63 0 -115 -28q-53 -27 -135 -108z " />
<glyph unicode="&#xa4;" horiz-adv-x="1139" d="M89 363l141 139q-32 53 -49.5 108.5t-17.5 114.5q0 60 17.5 115.5t49.5 108.5l-141 139l109 113l143 -141q51 33 106.5 50.5t117.5 17.5q63 0 118.5 -17.5t106.5 -50.5l142 141l110 -113l-142 -139q33 -53 50.5 -108.5t17.5 -115.5q0 -59 -17.5 -114.5t-50.5 -108.5 l142 -139l-110 -113l-142 142q-51 -34 -106.5 -51.5t-118.5 -17.5q-62 0 -117.5 17.5t-106.5 51.5l-143 -142zM300 725q0 -54 20.5 -102t56.5 -84t84 -57t103 -21t103 21t83.5 57t56 84t20.5 102t-20.5 102t-56 84t-83.5 57t-103 21q-54 0 -102 -21t-84 -57t-57 -84 t-21 -102z" />
<glyph unicode="&#xa6;" horiz-adv-x="501" d="M180 294h151v-725h-151v725zM180 761v730h151v-730h-151z" />
<glyph unicode="&#xa7;" horiz-adv-x="1139" d="M117 584q0 105 55.5 184t171.5 115q-38 30 -69 62t-52.5 67.5t-33.5 75.5t-12 87q0 71 30 129.5t80.5 100t116.5 64t138 22.5q93 0 165 -25.5t122.5 -73t80.5 -115.5t41 -152h-171q-8 63 -30 105.5t-53.5 69t-71 37.5t-81.5 11q-39 0 -75 -11.5t-63 -33t-43.5 -52 t-16.5 -67.5q0 -50 25.5 -90t71 -76.5t108 -74t136.5 -82.5l111 -68q58 -36 107.5 -81t82 -101.5t32.5 -130.5q0 -106 -55.5 -185t-172.5 -115q38 -30 69 -61.5t53 -67t34 -76t12 -86.5q0 -71 -30 -129.5t-80.5 -100t-116.5 -64t-138 -22.5q-93 0 -165 25.5t-122.5 73 t-81 115.5t-40.5 152h171q7 -63 29.5 -105.5t54 -69t71 -37.5t81.5 -11q39 0 75 11.5t63 33t43.5 51.5t16.5 68q0 50 -25.5 90t-71 76.5t-108 74t-136.5 82.5q-52 32 -110.5 67.5t-108 80.5t-82 102t-32.5 131zM281 615q0 -45 21 -81.5t56.5 -68t82 -61t98.5 -60.5l77 -46 q38 -23 73 -46q40 14 71 38t52.5 52t32.5 56t11 51q0 45 -21 81.5t-56.5 68t-82 61t-98.5 60.5q-40 23 -77.5 45.5t-72.5 45.5q-40 -14 -71 -38t-52.5 -51.5t-32.5 -56t-11 -50.5z" />
<glyph unicode="&#xa8;" horiz-adv-x="682" d="M61 1270v205h188v-205h-188zM434 1270v205h188v-205h-188z" />
<glyph unicode="&#xa9;" horiz-adv-x="1509" d="M3 736q0 102 27.5 197.5t77 179.5t119 153.5t153 119.5t179.5 77.5t199 27.5q102 0 198 -27.5t179.5 -77t153 -119t119 -153t77 -179.5t27.5 -199t-27.5 -198.5t-77 -179.5t-118.5 -153t-153 -118.5t-179.5 -77t-198.5 -27.5t-199 27.5t-179.5 77.5t-153 119t-119 153 t-77 179.5t-27.5 197.5zM121 736q0 -93 23.5 -176t65.5 -153.5t101 -127.5t129.5 -96.5t151 -61t166.5 -21.5t166.5 22t151 62.5t129 97.5t100.5 127.5t65.5 153t23.5 173.5t-23.5 173.5t-65.5 153t-101 128t-129.5 98t-151 62.5t-165.5 22q-128 0 -243.5 -47.5t-203 -132 t-139 -201.5t-51.5 -256zM367 731q0 110 28 194.5t79 143t120.5 89t152.5 30.5q146 0 241.5 -70.5t138.5 -203.5h-152q-14 43 -38 71t-52.5 46.5t-62 27.5t-70.5 9q-58 0 -103 -23.5t-75 -67t-45.5 -105t-15.5 -137.5q0 -82 17 -144t47 -105t73.5 -64t94.5 -21q40 0 75.5 9 t65 28t53 48.5t36.5 72.5h152q-16 -64 -49.5 -116t-82.5 -88t-111.5 -55.5t-137.5 -19.5q-88 0 -158.5 31.5t-120 90t-75 141.5t-25.5 188z" />
<glyph unicode="&#xab;" horiz-adv-x="1033" d="M129 528l306 456h142l-251 -456l249 -456h-140zM505 528l300 456h146l-253 -456l253 -456h-146z" />
<glyph unicode="&#xac;" horiz-adv-x="1175" d="M114 896v134h968v-388h-141v254h-827z" />
<glyph unicode="&#xad;" horiz-adv-x="595" d="M82 440v181h492v-181h-492z" />
<glyph unicode="&#xae;" horiz-adv-x="1509" d="M3 736q0 102 27.5 197.5t77 179.5t119 153.5t153 119.5t179.5 77.5t199 27.5q102 0 198 -27.5t179.5 -77t153 -119t119 -153t77 -179.5t27.5 -199t-27.5 -198.5t-77 -179.5t-118.5 -153t-153 -118.5t-179.5 -77t-198.5 -27.5t-199 27.5t-179.5 77.5t-153 119t-119 153 t-77 179.5t-27.5 197.5zM121 736q0 -93 23.5 -176t65.5 -153.5t101 -127.5t129.5 -96.5t151 -61t166.5 -21.5t166.5 22t151 62.5t129 97.5t100.5 127.5t65.5 153t23.5 173.5t-23.5 173.5t-65.5 153t-101 128t-129.5 98t-151 62.5t-165.5 22q-128 0 -243.5 -47.5t-203 -132 t-139 -201.5t-51.5 -256zM445 318v840h283q63 0 118.5 -17.5t97.5 -51t66.5 -83t24.5 -112.5q0 -33 -11.5 -69.5t-36 -68t-63.5 -55t-94 -30.5q18 -13 37.5 -31t37.5 -36t32 -34.5t21 -26.5l157 -225h-145l-133 187q-36 51 -69 84t-62 53t-53.5 32t-44.5 21l45 118 q29 -23 58.5 -33.5t56.5 -10.5t52 8.5t43.5 24.5t30 39.5t11.5 52.5q0 32 -11 60t-33 48.5t-54 32t-74 11.5h-162v-728h-126z" />
<glyph unicode="&#xaf;" horiz-adv-x="1024" d="M-30 1550v130h1146v-130h-1146z" />
<glyph unicode="&#xb0;" horiz-adv-x="631" d="M75 1222q0 51 19 95.5t52 77.5t77.5 52t95.5 19t95.5 -19t77.5 -52t52 -77.5t19 -95.5t-19 -95.5t-52 -77.5t-77.5 -52t-95.5 -19t-95.5 19t-77.5 52t-52 77.5t-19 95.5zM163 1222q0 -32 12.5 -60.5t33.5 -49.5t49.5 -33.5t60.5 -12.5q33 0 61.5 12.5t49.5 33.5 t33.5 49.5t12.5 60.5q0 33 -12.5 61.5t-33.5 49.5t-49.5 33.5t-61.5 12.5q-32 0 -60.5 -12.5t-49.5 -33.5t-33.5 -49.5t-12.5 -61.5z" />
<glyph unicode="&#xb1;" horiz-adv-x="1124" d="M109 38v168h930v-168h-930zM109 566v168h383v289h164v-289h383v-168h-383v-274h-164v274h-383z" />
<glyph unicode="&#xb6;" horiz-adv-x="1160" d="M25 1094q0 90 33.5 159.5t90.5 117t131.5 71.5t157.5 24h693v-163h-144v-1710h-160v1710h-243v-1710h-155v1125q-79 0 -152 25t-129 73t-89.5 118t-33.5 160z" />
<glyph unicode="&#xb7;" horiz-adv-x="535" d="M178 503v205h196v-205h-196z" />
<glyph unicode="&#xba;" horiz-adv-x="631" d="M75 1222q0 51 19 95.5t52 77.5t77.5 52t95.5 19t95.5 -19t77.5 -52t52 -77.5t19 -95.5t-19 -95.5t-52 -77.5t-77.5 -52t-95.5 -19t-95.5 19t-77.5 52t-52 77.5t-19 95.5zM163 1222q0 -32 12.5 -60.5t33.5 -49.5t49.5 -33.5t60.5 -12.5q33 0 61.5 12.5t49.5 33.5 t33.5 49.5t12.5 60.5q0 33 -12.5 61.5t-33.5 49.5t-49.5 33.5t-61.5 12.5q-32 0 -60.5 -12.5t-49.5 -33.5t-33.5 -49.5t-12.5 -61.5z" />
<glyph unicode="&#xbb;" horiz-adv-x="1033" d="M134 72l254 456l-254 456h145l302 -456l-302 -456h-145zM509 984h142l306 -456l-306 -456h-141l249 456z" />
<glyph unicode="&#xd7;" horiz-adv-x="1045" d="M125 1006l116 116l282 -282l271 271l119 -119l-271 -271l284 -284l-116 -116l-284 284l-271 -271l-119 119l271 271z" />
<glyph unicode="&#xf7;" horiz-adv-x="1124" d="M109 639v168h930v-168h-930zM459 311v205h205v-205h-205zM459 938v205h205v-205h-205z" />
<glyph unicode="&#x2d8;" horiz-adv-x="682" d="M46 1467h123q18 -74 63 -104.5t112 -30.5t110 30.5t60 104.5h123q-20 -122 -93 -190.5t-202 -68.5q-131 0 -206.5 69t-89.5 190z" />
<glyph unicode="&#x2dc;" horiz-adv-x="1088" d="M84 1517v95q101 120 266 120q78 0 171 -34q39 -17 79 -33.5t82 -33.5q84 -33 136 -33q30 0 62 10t64.5 28t63.5 43.5t58 55.5v-102q-59 -59 -122.5 -86.5t-143.5 -27.5q-72 0 -154 33q-42 17 -82.5 33.5t-82.5 33.5q-81 34 -147 34q-63 0 -115 -28q-53 -27 -135 -108z " />
<glyph unicode="&#x401;" horiz-adv-x="1280" d="M150 0v1466h1017v-172h-831v-444h728v-173h-728v-504h864v-173h-1050zM394 1637v205h188v-205h-188zM767 1637v205h188v-205h-188z" />
<glyph unicode="&#x410;" horiz-adv-x="1288" d="M0 0q23 113 51 223t61 220q12 41 25 80.5t27 80.5q74 217 165.5 430t202.5 432h219q113 -220 203.5 -435t163.5 -432q14 -40 27 -80t25 -80q34 -111 63 -220t55 -219h-192q-21 106 -48 219t-69 225h-669q-38 -112 -69.5 -222t-52.5 -222h-188zM356 602h577 q-36 97 -66.5 180t-63.5 162.5t-71.5 162t-89.5 178.5h-1q-50 -96 -89 -183t-73 -169.5t-63.5 -164t-59.5 -166.5z" />
<glyph unicode="&#x411;" horiz-adv-x="1255" d="M150 0v1466h907v-173h-721v-1120h343q65 0 120.5 13.5t96 44.5t63.5 81t23 123t-21 120t-59 74t-91.5 37.5t-118.5 10.5h-199v173h197q105 0 194 -25t153.5 -75t101 -126t36.5 -179t-36.5 -185.5t-102 -140t-157 -88.5t-200.5 -31h-529z" />
<glyph unicode="&#x412;" horiz-adv-x="1255" d="M150 0v1466h518q109 0 194.5 -31t143.5 -82.5t88.5 -119.5t30.5 -142q0 -100 -41.5 -181t-135.5 -130l1 -3q54 -23 96.5 -60t71 -82t43.5 -94.5t15 -95.5q0 -102 -36.5 -184.5t-102 -140t-156.5 -89t-201 -31.5h-529zM336 173h343q55 0 109.5 14t97.5 45t69.5 81 t26.5 122q0 59 -21 104t-59 76t-91.5 46.5t-118.5 15.5h-199v173h197q63 0 110 17t78.5 47t47 72t15.5 92q0 52 -21.5 92t-62 67.5t-99 41.5t-131.5 14h-291v-1120z" />
<glyph unicode="&#x413;" horiz-adv-x="1120" d="M150 0v1466h948v-173h-762v-1293h-186z" />
<glyph unicode="&#x414;" horiz-adv-x="1387" d="M10 173h124q45 65 92.5 161.5t86 229.5t63.5 303.5t25 384.5v214h734v-1293h190v-405h-174v232h-964v-232h-177v405zM338 173h611v1120h-369v-75q0 -144 -15.5 -293t-46 -288t-76 -259t-104.5 -205z" />
<glyph unicode="&#x415;" horiz-adv-x="1280" d="M150 0v1466h1017v-172h-831v-444h728v-173h-728v-504h864v-173h-1050z" />
<glyph unicode="&#x416;" horiz-adv-x="2138" d="M-7 0q84 136 158 241.5t141 185.5t128.5 137t119.5 97.5t107 66.5t105 43q-82 39 -157.5 96t-163 139.5t-182 195t-200.5 264.5h203q67 -94 137 -177.5t137.5 -153t134 -124.5t125 -93.5t106.5 -58.5t79 -20v627h186v-627q31 0 79 20t106.5 58.5t125 93.5t134 124.5 t137.5 153t137 177.5h203q-106 -152 -200.5 -264.5t-182 -195t-163 -139.5t-157.5 -96q56 -17 105 -43t107 -66.5t119.5 -97.5t128.5 -137t141 -185.5t158 -241.5h-209q-128 199 -234.5 329.5t-199 207.5t-174.5 108t-161 31v-676h-186v676q-79 0 -161 -31t-174.5 -108 t-199 -207.5t-234.5 -329.5h-209z" />
<glyph unicode="&#x417;" horiz-adv-x="1225" d="M33 444h185q0 -120 101 -205q108 -91 275 -91q164 0 272 81.5t108 199.5q0 112 -80 181q-96 83 -289 83h-67v173h71q131 0 209.5 59t78.5 162q0 85 -68 152q-80 79 -211 79q-130 0 -213 -80q-77 -74 -77 -176h-185q0 173 137 299q141 130 342 130q195 0 330 -123 q130 -118 130 -272q0 -105 -40 -183q-44 -86 -129 -119q117 -34 186 -143q61 -97 61 -210q0 -195 -153 -327q-161 -139 -417 -139q-245 0 -401 135.5t-156 333.5z" />
<glyph unicode="&#x418;" horiz-adv-x="1409" d="M150 0v1466h178v-1202h1q102 136 202.5 284t195 301t181 308.5t160.5 308.5h191v-1466h-179v1141h-1q-148 -295 -335 -576.5t-403 -564.5h-191z" />
<glyph unicode="&#x419;" horiz-adv-x="1409" d="M402 1663h123q18 -74 63 -104.5t112 -30.5t110 30.5t60 104.5h123q-20 -122 -93 -190.5t-202 -68.5q-131 0 -206.5 69t-89.5 190zM150 0v1466h178v-1202h1q102 136 202.5 284t195 301t181 308.5t160.5 308.5h191v-1466h-179v1141h-1q-148 -295 -335 -576.5t-403 -564.5 h-191z" />
<glyph unicode="&#x41a;" horiz-adv-x="1314" d="M150 0v1466h186v-627q31 0 79 20t106.5 58.5t125 93.5t134 124.5t137.5 153t137 177.5h203q-106 -152 -200.5 -264.5t-182 -195t-163 -139.5t-157.5 -96q56 -17 105 -43t107 -66.5t119.5 -97.5t128.5 -137t141 -185.5t158 -241.5h-209q-128 199 -234.5 329.5t-199 207.5 t-174.5 108t-161 31v-676h-186z" />
<glyph unicode="&#x41b;" horiz-adv-x="1325" d="M16 7l33 158q24 -10 45.5 -12t38.5 -2q46 0 83 44.5t66 127t49.5 200t33.5 264t19.5 318t6.5 361.5h784v-1466h-186v1293h-412q-6 -337 -30 -583.5t-71.5 -407.5t-122 -239t-180.5 -78q-32 0 -75.5 5.5t-81.5 16.5z" />
<glyph unicode="&#x41c;" horiz-adv-x="1649" d="M150 0v1466h201q153 -212 272 -439.5t193 -477.5h4q86 250 201.5 477t271.5 440h206v-1466h-185v1187q-66 -96 -121.5 -200t-105 -214.5t-94.5 -227t-88 -237.5h-168q-39 120 -82 235t-92 225t-106.5 215t-126.5 205v-1188h-180z" />
<glyph unicode="&#x41d;" horiz-adv-x="1404" d="M150 0v1466h186v-616h731v616h187v-1466h-187v677h-731v-677h-186z" />
<glyph unicode="&#x41e;" horiz-adv-x="1446" d="M50 714q0 359 187 570q184 207 487 207q290 0 481 -213t191 -547q0 -328 -197 -544q-193 -212 -476 -212q-289 0 -484 223q-189 216 -189 516zM242 711q0 -259 135 -413q132 -151 345 -151q217 0 346 149q136 157 136 436q0 265 -133 426t-346 161q-214 0 -339 -137 q-144 -157 -144 -471z" />
<glyph unicode="&#x41f;" horiz-adv-x="1404" d="M150 0v1466h1104v-1466h-187v1293h-731v-1293h-186z" />
<glyph unicode="&#x420;" horiz-adv-x="1194" d="M150 0v1466h481q132 0 233.5 -39t170 -103.5t104 -148t35.5 -171.5q0 -106 -39 -185.5t-102.5 -133t-146 -80t-169.5 -26.5q-77 0 -149 24t-143 76l82 149q54 -42 104.5 -59t103.5 -17q51 0 99 18.5t85.5 51.5t60 78t22.5 98q0 74 -28.5 129.5t-75 92t-107 55 t-125.5 18.5h-310v-1293h-186z" />
<glyph unicode="&#x421;" horiz-adv-x="1431" d="M60 744q0 152 44 288t129 238t208.5 161.5t282.5 59.5q121 0 219 -29t173.5 -84t128.5 -134.5t85 -181.5h-194q-26 64 -67 113t-94.5 82t-118 50t-136.5 17q-123 0 -211.5 -48.5t-145.5 -129.5t-84 -185.5t-27 -215.5q0 -146 37.5 -258.5t103 -189t154 -116.5t189.5 -40 q94 0 166.5 24.5t126 69.5t88 108.5t51.5 140.5h203q-21 -90 -69.5 -180.5t-126.5 -163.5t-187 -119t-251 -46q-140 0 -263 54t-215 154t-145.5 242t-53.5 319z" />
<glyph unicode="&#x422;" horiz-adv-x="1156" d="M20 1293v173h1116v-173h-466v-1293h-186v1293h-464z" />
<glyph unicode="&#x423;" horiz-adv-x="1301" d="M10 1466h214q93 -254 220 -483t278 -417h11q116 250 199.5 461t149.5 439h204q-56 -170 -115.5 -332.5t-125.5 -316.5t-140 -299t-160 -280q-49 -77 -92.5 -127.5t-89 -80.5t-96.5 -42t-115 -12q-38 0 -86.5 8t-90.5 31l26 173q39 -23 74 -27.5t65 -4.5q36 0 69.5 6.5 t67.5 30.5t69.5 70t76.5 125q-95 118 -182 247.5t-164 266.5t-144 279t-123 285z" />
<glyph unicode="&#x424;" horiz-adv-x="1536" d="M100 740q0 244 161 397t415 153v176h185v-176q261 0 421 -160q154 -154 154 -390q0 -233 -147 -386q-158 -165 -428 -165v-189h-185v189q-250 0 -413 153t-163 398zM293 740q0 -174 102.5 -278.5t280.5 -104.5v766q-173 0 -278 -103t-105 -280zM861 356q179 0 281 102 t102 282q0 175 -97 277q-102 107 -286 107v-768z" />
<glyph unicode="&#x425;" horiz-adv-x="1230" d="M0 0q44 118 101 221t122.5 196t137 178.5t144.5 167.5q-66 82 -130 165t-122.5 170t-109 178.5t-89.5 189.5h202q33 -84 74.5 -159t88.5 -145t98.5 -135.5t106.5 -130.5q57 65 112 131t105.5 136t95.5 145t82 158h182q-39 -98 -91 -189.5t-113 -177.5t-128 -168.5 t-136 -162.5q67 -78 134 -161.5t130.5 -176.5t122.5 -199.5t110 -230.5h-201q-36 85 -83 165.5t-100.5 158t-112 153.5t-119.5 152q-65 -75 -126.5 -151t-116 -154t-100 -158.5t-78.5 -165.5h-193z" />
<glyph unicode="&#x426;" horiz-adv-x="1404" d="M150 0v1466h186v-1293h731v1293h187v-1293h129v-580h-187v407h-1046z" />
<glyph unicode="&#x427;" horiz-adv-x="1359" d="M120 975v491h186v-476q0 -83 17.5 -143.5t56 -100.5t100.5 -59t152 -19q51 0 97.5 4.5t93 15t95 26.5t105.5 39v713h186v-1466h-186v589h-1q-63 -23 -116.5 -40.5t-102 -29.5t-95 -18t-94.5 -6q-130 0 -223.5 33t-153.5 95t-88.5 151t-28.5 201z" />
<glyph unicode="&#x428;" horiz-adv-x="1903" d="M150 0v1466h186v-1293h522v1293h186v-1293h522v1293h187v-1466h-1603z" />
<glyph unicode="&#x429;" horiz-adv-x="1962" d="M150 0v1466h186v-1293h522v1293h186v-1293h522v1293h187v-1293h129v-580h-187v407h-1545z" />
<glyph unicode="&#x42a;" horiz-adv-x="1337" d="M4 1293v173h422v-1293h343q65 0 120.5 13.5t96 44.5t63.5 81t23 123t-21 120t-59 74t-91.5 37.5t-118.5 10.5h-199v173h197q105 0 194 -25t153.5 -75t101 -126t36.5 -179t-36.5 -185.5t-102 -140t-157 -88.5t-200.5 -31h-529v1293h-236z" />
<glyph unicode="&#x42b;" horiz-adv-x="1685" d="M150 0v1466h186v-1293h343q65 0 120.5 13.5t96 44.5t63.5 81t23 123t-21 120t-59 74t-91.5 37.5t-118.5 10.5h-199v173h197q105 0 194 -25t153.5 -75t101 -126t36.5 -179t-36.5 -185.5t-102 -140t-157 -88.5t-200.5 -31h-529zM1349 0v1466h186v-1466h-186z" />
<glyph unicode="&#x42c;" horiz-adv-x="1255" d="M150 0v1466h186v-1293h343q65 0 120.5 13.5t96 44.5t63.5 81t23 123t-21 120t-59 74t-91.5 37.5t-118.5 10.5h-199v173h197q105 0 194 -25t153.5 -75t101 -126t36.5 -179t-36.5 -185.5t-102 -140t-157 -88.5t-200.5 -31h-529z" />
<glyph unicode="&#x42d;" horiz-adv-x="1412" d="M80 404h194q26 -64 67 -113t94.5 -82t118 -50t136.5 -17q117 0 203 44t143 118t86.5 171t34.5 202h-674v173h667q-1 95 -35.5 181t-93.5 151.5t-138 104t-169 38.5q-94 0 -166.5 -24.5t-126 -69.5t-79.5 -84.5t-41 -84.5h-203q18 55 58.5 123t118.5 141t187 119t251 46 q139 0 256 -52.5t202 -149t132 -233t47 -304.5t-44 -310.5t-129 -246t-208.5 -162t-282.5 -58.5q-121 0 -221 29t-176.5 83.5t-129 134.5t-79.5 182z" />
<glyph unicode="&#x42e;" horiz-adv-x="1957" d="M150 0v1466h186v-616h203q17 148 72 266.5t142 202t202 128t251 44.5q144 0 267 -56.5t213 -157.5t141 -240.5t51 -305.5q0 -327 -197 -544q-194 -212 -476 -212q-289 0 -484 223q-179 203 -189 479h-196v-677h-186zM724 711q0 -127 34.5 -231t97.5 -178t151.5 -114.5 t196.5 -40.5q112 0 201.5 41t151.5 117t95.5 184.5t33.5 242.5q0 132 -35 240t-98.5 185.5t-151.5 119.5t-194 42q-116 0 -206 -40.5t-151.5 -118.5t-93.5 -191t-32 -258z" />
<glyph unicode="&#x42f;" horiz-adv-x="1319" d="M0 0l273 393q12 17 38.5 47t59 63.5t66 66t60.5 55.5q-95 12 -163 50t-111 90.5t-63 115t-20 123.5q0 110 43 196t116 145t170.5 90t205.5 31h494v-1466h-186v1304h-315q-74 0 -135.5 -25.5t-106 -67.5t-69.5 -96t-25 -111q0 -50 21.5 -95.5t59 -80t87 -55t106.5 -20.5 q48 1 99 18.5t102 56.5l82 -149q-36 -15 -85.5 -38.5t-107 -63.5t-121 -101t-126.5 -150l-230 -326h-219z" />
<glyph unicode="&#x430;" horiz-adv-x="1089" d="M80 280q0 79 30.5 140.5t84.5 104t127.5 65t158.5 22.5h308v109q0 49 -15 89t-45 68t-76 43.5t-108 15.5q-118 0 -186 -41.5t-88 -136.5h-161q31 167 143 247t317 80q107 0 182 -27.5t122 -77t68.5 -117.5t21.5 -149v-715h-160v131q-47 -42 -91.5 -71t-90 -48 t-93.5 -27.5t-100 -8.5q-81 0 -146 21.5t-110 61.5t-69 96t-24 125zM264 285q0 -75 53 -121.5t153 -46.5q72 0 131 24.5t101 64t64.5 89t22.5 99.5v78h-282q-62 0 -107.5 -14.5t-75.5 -40t-45 -59.5t-15 -73z" />
<glyph unicode="&#x431;" horiz-adv-x="1068" d="M115 540q0 142 3 263t18 219t46.5 173t87.5 125q52 46 111 69t117.5 32.5t112.5 11t95.5 5t66 14.5t24.5 39h172q0 -72 -27.5 -109t-73.5 -53t-105.5 -19.5t-124 -9.5t-129.5 -22.5t-121 -57.5q-40 -30 -60.5 -64.5t-29.5 -71t-10 -73t-2 -68.5h1q52 51 123.5 85 t156.5 34q99 0 178.5 -36t136 -102.5t87 -162t30.5 -214.5q0 -127 -32.5 -232t-91 -180.5t-139.5 -117t-178 -41.5t-178.5 28t-140 94t-91.5 174t-33 268zM273 539q0 -201 71 -308t200 -107q64 0 115.5 28.5t87.5 82t55.5 129t19.5 168.5q0 96 -19 167.5t-54.5 119.5 t-85.5 71.5t-112 23.5q-51 0 -101 -24t-89.5 -71.5t-63.5 -117.5t-24 -162z" />
<glyph unicode="&#x432;" horiz-adv-x="941" d="M131 0v1062h388q81 0 145 -23t108.5 -61.5t67.5 -88.5t23 -105q0 -66 -29.5 -124.5t-86.5 -97.5q34 -20 61.5 -48t47.5 -59.5t31 -65t11 -63.5q0 -75 -27.5 -135.5t-76.5 -102.5t-118 -65t-151 -23h-394zM303 146h222q36 0 70.5 9t62 29.5t44.5 53.5t17 81q0 78 -50 119 t-135 41h-231v-333zM303 625h230q79 0 118 42.5t39 107.5q0 67 -52.5 104t-148.5 37h-186v-291z" />
<glyph unicode="&#x433;" horiz-adv-x="859" d="M131 0v1062h713v-146h-541v-916h-172z" />
<glyph unicode="&#x434;" horiz-adv-x="1045" d="M24 146h94q31 48 63.5 118t59 164t43.5 211.5t17 259.5v163h561v-916h135v-310h-165v164h-641v-164h-167v310zM306 146h384v770h-221v-42q0 -95 -11.5 -197t-32.5 -198.5t-51 -182.5t-68 -150z" />
<glyph unicode="&#x435;" horiz-adv-x="1079" d="M60 522q0 132 34 236.5t96 177t150 111.5t196 39q106 0 195 -39t153 -111t99.5 -174t35.5 -229v-48h-780q0 -78 19.5 -144t58.5 -114t96.5 -75.5t133.5 -27.5q97 0 162 52.5t97 141.5h184q-18 -74 -56.5 -136.5t-95 -108.5t-130.5 -71.5t-162 -25.5q-117 0 -208 37.5 t-152.5 108t-93.5 171.5t-32 229zM248 633h579q-13 153 -88.5 229t-200.5 76q-62 0 -115 -23t-92 -63.5t-61 -96.5t-22 -122z" />
<glyph unicode="&#x436;" horiz-adv-x="1586" d="M2 0q94 152 172 254t146 165q60 51 112 85.5t102 54.5q-51 28 -102 67.5t-104 88.5q-65 62 -136.5 146.5t-149.5 200.5h186q64 -91 132 -167t131.5 -133t118.5 -93.5t93 -48.5v442h172v-442q37 10 92 46t119 93t132 134t132 169h189q-81 -116 -152 -200.5t-137 -146.5 q-53 -49 -103 -88t-102 -68q48 -19 103.5 -54.5t109.5 -85.5q70 -64 148 -166.5t171 -252.5h-192q-85 132 -156.5 221t-133.5 144.5t-116 81t-104 30.5v-477h-172v477q-49 -5 -102.5 -30.5t-115.5 -80.5t-134 -144.5t-157 -221.5h-192z" />
<glyph unicode="&#x437;" horiz-adv-x="918" d="M36 332h178q0 -45 19 -83.5t52 -67t77.5 -44.5t95.5 -16q53 0 98 15t78 40.5t51.5 59.5t18.5 73q0 85 -63 130.5t-175 45.5h-76v146h79q82 0 131.5 38.5t49.5 106.5q0 31 -9 60.5t-29.5 52t-54 36.5t-82.5 14t-83.5 -16t-56.5 -42.5t-32 -61t-10 -72.5h-178 q0 66 25 127.5t72 108.5t114 75t151 28t149.5 -25.5t110 -68t68 -97.5t23.5 -113q0 -72 -29.5 -127.5t-81.5 -85.5q37 -16 68 -42t52.5 -59.5t33.5 -71.5t12 -78q0 -74 -32 -136.5t-89 -108.5t-135.5 -71.5t-171.5 -25.5q-92 0 -169 28t-132.5 76t-86.5 113t-31 139z" />
<glyph unicode="&#x438;" horiz-adv-x="1090" d="M131 0v1062h173v-800h1q135 184 257.5 386.5t224.5 413.5h177v-1062h-174v731h-1q-100 -183 -223 -366.5t-261 -364.5h-174z" />
<glyph unicode="&#x439;" horiz-adv-x="1090" d="M131 0v1062h173v-800h1q135 184 257.5 386.5t224.5 413.5h177v-1062h-174v731h-1q-100 -183 -223 -366.5t-261 -364.5h-174zM239 1467h123q18 -74 63 -104.5t112 -30.5t110 30.5t60 104.5h123q-20 -122 -93 -190.5t-202 -68.5q-131 0 -206.5 69t-89.5 190z" />
<glyph unicode="&#x43a;" horiz-adv-x="975" d="M131 0v1062h172v-432q119 88 225 196.5t194 235.5h214q-86 -112 -185 -220.5t-199 -205.5q68 -77 126 -153t109.5 -154t97.5 -160t90 -169h-213q-30 69 -64.5 135t-75 131t-88 129.5t-104.5 129.5q-33 -29 -65 -55t-62 -49v-421h-172z" />
<glyph unicode="&#x43b;" horiz-adv-x="997" d="M8 14l24 132q33 -14 51 -17t29 -3q44 0 74.5 69.5t50 193.5t28.5 294.5t9 373.5h597v-1061h-174v915h-249q-6 -222 -26 -394.5t-56.5 -290.5t-92 -179.5t-132.5 -61.5q-27 0 -62.5 5t-70.5 24z" />
<glyph unicode="&#x43c;" horiz-adv-x="1252" d="M131 0v1061h176q103 -142 183 -290.5t136 -309.5q59 161 137 309t184 291h179v-1061h-171v786q-75 -125 -135.5 -268.5t-116.5 -299.5h-152q-51 155 -111 297t-141 272v-787h-168z" />
<glyph unicode="&#x43d;" horiz-adv-x="1077" d="M126 0v1062h172v-429h481v429h172v-1062h-172v485h-481v-485h-172z" />
<glyph unicode="&#x43e;" horiz-adv-x="1075" d="M60 531q0 262 133 411q129 144 345 144q213 0 343 -142q134 -147 134 -398q0 -287 -134 -434q-124 -136 -343 -136q-218 0 -345 141q-133 147 -133 414zM238 531q0 -197 84 -305q80 -102 216 -102q135 0 215 102q85 109 85 311q0 191 -85 298q-81 102 -215 102 q-135 0 -214 -99q-86 -107 -86 -307z" />
<glyph unicode="&#x43f;" horiz-adv-x="1082" d="M131 0v1062h825v-1062h-172v914h-481v-914h-172z" />
<glyph unicode="&#x440;" horiz-adv-x="1080" d="M135 -407v1469h154v-138q57 82 127 122t172 40q189 0 311 -155q121 -154 121 -392q0 -235 -131 -399t-314 -164q-84 0 -152.5 35.5t-116.5 98.5v-517h-171zM291 525q0 -196 79 -302q73 -99 194 -99q122 0 197 101q82 110 82 315q0 194 -79 303q-74 102 -193 102 q-116 0 -194 -106q-86 -116 -86 -314z" />
<glyph unicode="&#x441;" horiz-adv-x="1049" d="M60 527q0 134 34.5 238t96.5 175.5t147 108.5t186 37q179 0 296 -85.5t169 -250.5h-186q-18 52 -46.5 87.5t-63.5 58t-76 32.5t-86 10q-72 0 -126.5 -28.5t-92 -81t-56.5 -128t-19 -168.5q0 -101 21 -177t58.5 -127.5t90 -77.5t115.5 -26q49 0 92.5 10.5t79.5 33.5t64 60 t45 90h186q-20 -80 -60.5 -143.5t-100 -107.5t-136.5 -67.5t-169 -23.5q-108 0 -194 38t-146 109.5t-91.5 173.5t-31.5 230z" />
<glyph unicode="&#x442;" horiz-adv-x="858" d="M13 915v146h832v-146h-331v-915h-172v915h-329z" />
<glyph unicode="&#x443;" horiz-adv-x="934" d="M0 1062h176q52 -218 131 -432.5t174 -428.5h1q93 215 163.5 428.5t119.5 432.5h169q-72 -310 -187 -623.5t-269 -633.5q-55 -115 -141.5 -175.5t-185.5 -60.5h-69v140h38q36 0 72 16.5t69 48t61.5 77.5t49.5 105l16 44q-125 267 -220 531.5t-168 530.5z" />
<glyph unicode="&#x444;" horiz-adv-x="1702" d="M61 539q0 118 32 218t89.5 173t136.5 114.5t174 41.5t161.5 -34.5t120.5 -104.5v519h172v-519q54 70 120 104.5t161 34.5q94 0 173.5 -41.5t137 -114.5t89.5 -173t32 -218q0 -116 -35.5 -218.5t-96 -179t-141.5 -121t-172 -44.5q-85 0 -152.5 35.5t-115.5 98.5v-517h-172 v517q-48 -63 -116 -98.5t-153 -35.5q-92 0 -172.5 44.5t-141.5 121t-96 179t-35 218.5zM238 540q0 -98 19.5 -175t56 -130.5t88 -82t115.5 -28.5q63 0 112 27.5t82.5 79t51 126t17.5 168.5t-19.5 171t-55 132.5t-85 86t-110.5 30.5q-62 0 -112.5 -28.5t-86 -81.5t-54.5 -128 t-19 -167zM941 525q0 -94 17.5 -168.5t51 -126t82.5 -79t112 -27.5q64 0 115.5 28.5t88 82t56 130.5t19.5 175q0 92 -19 167t-54.5 128t-86 81.5t-112.5 28.5q-61 0 -110.5 -30.5t-85 -86t-55 -132.5t-19.5 -171z" />
<glyph unicode="&#x445;" horiz-adv-x="955" d="M0 0q26 71 66.5 139.5t90 135t105 131.5t112.5 130q-57 64 -111 129t-100 130.5t-81 132t-54 134.5h176q18 -51 47 -101.5t65 -101t78 -101t87 -101.5q87 100 159.5 200.5t114.5 204.5h173q-21 -71 -56 -138t-80 -132t-97 -128.5t-107 -125.5q58 -65 114.5 -130.5 t105 -132.5t87 -135.5t60.5 -139.5h-183q-47 108 -124.5 210.5t-167.5 205.5q-90 -103 -169.5 -205t-130.5 -211h-180z" />
<glyph unicode="&#x446;" horiz-adv-x="1127" d="M131 0v1062h172v-914h481v914h172v-914h119v-554h-172v406h-772z" />
<glyph unicode="&#x447;" horiz-adv-x="1052" d="M101 714v348h171v-289q0 -141 51 -211.5t161 -70.5q106 0 178 64q92 82 92 248v259h172v-1062h-172v516q-100 -180 -305 -180q-154 0 -244 84q-104 97 -104 294z" />
<glyph unicode="&#x448;" horiz-adv-x="1447" d="M131 0v1062h172v-914h337v914h172v-914h337v914h172v-1062h-1190z" />
<glyph unicode="&#x449;" horiz-adv-x="1501" d="M131 0v1062h172v-914h337v914h172v-914h337v914h172v-914h119v-554h-172v406h-1137z" />
<glyph unicode="&#x44a;" horiz-adv-x="986" d="M10 915v146h338v-915h223q42 0 77.5 9t61.5 29.5t40.5 53.5t14.5 81t-13.5 79t-38 49t-58.5 25t-75 7h-161v146h160q79 0 145.5 -18.5t115.5 -55.5t76.5 -93t27.5 -132q0 -75 -27.5 -135.5t-76.5 -103t-118 -65t-151 -22.5h-395v915h-166z" />
<glyph unicode="&#x44b;" horiz-adv-x="1315" d="M131 0v1061h172v-915h224q41 0 76 9t61 29.5t41 53.5t15 81t-13.5 79t-38 49t-58.5 25t-74 7h-162v146h161q78 0 144.5 -18.5t115 -55.5t76 -93t27.5 -132q0 -75 -27.5 -135.5t-76.5 -103t-117 -65t-150 -22.5h-396zM1017 0v1061h172v-1061h-172z" />
<glyph unicode="&#x44c;" horiz-adv-x="948" d="M131 0v1061h172v-915h222q42 0 77.5 9t61.5 29.5t40.5 53.5t14.5 81t-13.5 79t-38 49t-58.5 25t-75 7h-160v146h159q79 0 145.5 -18.5t115.5 -55.5t76.5 -93t27.5 -132q0 -75 -27.5 -135.5t-76.5 -103t-118 -65t-151 -22.5h-394z" />
<glyph unicode="&#x44d;" horiz-adv-x="1075" d="M69 689q16 67 52 135.5t94.5 123.5t139.5 89.5t186 34.5q104 0 191 -38t149.5 -107.5t97.5 -168.5t35 -221t-33 -224.5t-95.5 -177.5t-154 -117t-208.5 -42q-181 0 -297 85.5t-156 240.5h177q37 -91 110 -137.5t169 -46.5q74 0 129 29.5t92.5 79t59 113.5t27.5 132h-476 v146h472q-6 60 -30.5 116.5t-63 100t-88.5 70t-106 26.5q-61 0 -109 -17.5t-83.5 -49t-59 -76.5t-35.5 -99h-186z" />
<glyph unicode="&#x44e;" horiz-adv-x="1449" d="M131 1v1061h174v-436h102q16 102 58 185.5t106 143t147 92.5t181 33q106 0 197 -41t157.5 -114t104 -174t37.5 -221q0 -233 -145 -393q-138 -153 -352 -153q-107 0 -197.5 41.5t-160.5 119.5q-27 31 -50 72t-41 85t-28.5 90t-13.5 88h-102v-479h-174zM579 516 q0 -87 23 -158.5t65 -122.5t100.5 -78.5t130.5 -27.5q75 0 134.5 28t101 80.5t63.5 127t22 166.5q0 91 -23.5 165.5t-65.5 127.5t-101 82t-129 29q-155 0 -238 -109t-83 -310z" />
<glyph unicode="&#x44f;" horiz-adv-x="1023" d="M14 0l207 296q8 11 24 30t35.5 40.5t41.5 43t42 38.5q-67 12 -113 40t-74.5 66t-41 81.5t-12.5 87.5q0 81 32 143.5t86.5 106t127 66t152.5 22.5h372v-1061h-174v923h-203q-47 0 -86.5 -17.5t-68.5 -45.5t-45 -64t-16 -73q0 -33 13.5 -63t37.5 -53.5t55.5 -37t67.5 -13.5 q28 1 65 17t84 50l74 -135q-25 -11 -61.5 -31t-79 -51t-88 -73t-88.5 -97q-24 -34 -52 -73t-54 -77q-16 -23 -31.5 -44.5t-29.5 -41.5h-199z" />
<glyph unicode="&#x451;" horiz-adv-x="1079" d="M286 1270v205h188v-205h-188zM659 1270v205h188v-205h-188zM60 522q0 132 34 236.5t96 177t150 111.5t196 39q106 0 195 -39t153 -111t99.5 -174t35.5 -229v-48h-780q0 -78 19.5 -144t58.5 -114t96.5 -75.5t133.5 -27.5q97 0 162 52.5t97 141.5h184q-18 -74 -56.5 -136.5 t-95 -108.5t-130.5 -71.5t-162 -25.5q-117 0 -208 37.5t-152.5 108t-93.5 171.5t-32 229zM248 633h579q-13 153 -88.5 229t-200.5 76q-62 0 -115 -23t-92 -63.5t-61 -96.5t-22 -122z" />
<glyph unicode="&#x531;" horiz-adv-x="1446" d="M150 547v919h185v-925q0 -172 110 -285q106 -109 259 -109q116 0 210 72q-52 36 -92 56q-49 24 -101 35l57 177q66 -13 132 -48q51 -27 119 -77q40 82 40 179v925h187v-919q0 -80 -20.5 -153.5t-60.5 -140.5q56 -40 99 -65q53 -30 108 -50l-66 -171q-65 19 -135 61 q-56 33 -122 84q-74 -65 -165.5 -101t-189.5 -36q-220 0 -382 157q-172 166 -172 415z" />
<glyph unicode="&#x532;" horiz-adv-x="1406" d="M150 0v895q0 257 159.5 426.5t390.5 169.5q236 0 396 -173t160 -419v-123h-187v146q0 154 -96 270q-105 127 -271 127q-159 0 -263 -117.5t-104 -299.5v-377h976v-173h-976v-352h-185z" />
<glyph unicode="&#x533;" horiz-adv-x="1502" d="M108 926q0 224 159 392q164 173 393 173q231 0 399 -178q155 -164 155 -358v-430h238v-173h-238v-352h-186v352h-368q-252 0 -402 154t-150 420zM294 926q0 -184 102.5 -292.5t280.5 -108.5h351v407q0 141 -97 257q-109 130 -271 130q-148 0 -254 -107 q-112 -113 -112 -286z" />
<glyph unicode="&#x534;" horiz-adv-x="1488" d="M86 776v149q0 238 167 404q163 162 386 162q208 0 374 -157q179 -169 179 -409v-400h246v-173h-246v-352h-186v912q0 183 -115 300q-106 108 -252 108q-154 0 -257 -106q-110 -114 -110 -302v-136h-186z" />
<glyph unicode="&#x535;" horiz-adv-x="1406" d="M150 555v911h185v-404h986v-174h-986v-349q0 -165 104.5 -278.5t264.5 -113.5q145 0 252 109q113 115 113 283v105h187v-93q0 -247 -173 -416q-164 -160 -379 -160q-224 0 -386 162q-168 168 -168 418z" />
<glyph unicode="&#x536;" horiz-adv-x="1444" d="M150 0v303h185v-137q308 0 535 211q238 221 238 548q0 167 -115.5 280.5t-273.5 113.5q-159 0 -271.5 -116.5t-112.5 -290.5v-46h-185v51q0 233 168.5 403.5t400.5 170.5t403.5 -167.5t171.5 -394.5q0 -253 -145 -480q-134 -211 -306 -276h451v-173h-1144z" />
<glyph unicode="&#x537;" horiz-adv-x="1186" d="M150 -1v1467h185v-404h801v-174h-801v-714h697v-174z" />
<glyph unicode="&#x538;" horiz-adv-x="1406" d="M150 0v895q0 257 159.5 426.5t390.5 169.5q236 0 396 -173t160 -419v-123h-187v146q0 154 -96 270q-105 127 -271 127q-159 0 -263 -117.5t-104 -299.5v-729h976v-173h-1161z" />
<glyph unicode="&#x539;" horiz-adv-x="1714" d="M150 0v895q0 243 176 415q185 181 472 181q270 0 460 -177q182 -170 182 -389v-59h224v-173h-224v-303q0 -178 -114.5 -297.5t-296.5 -119.5q-161 0 -284 101q-151 124 -151 344q0 196 118 322t299 126h245v34q0 176 -130 296q-133 123 -331 123q-199 0 -329.5 -129.5 t-130.5 -317.5v-872h-185zM779 407q0 -119 75 -192q71 -69 179 -69q88 0 150 60q72 69 72 190v297h-225q-106 0 -173 -66q-78 -76 -78 -220z" />
<glyph unicode="&#x53a;" horiz-adv-x="1502" d="M108 514q0 133 44.5 235.5t120 172t176 105t211.5 35.5h368v405h186v-405h238v-174h-238v-403q0 -106 -47 -198.5t-125 -161.5t-177.5 -109t-204.5 -40q-76 0 -146 19t-131.5 54t-112 83.5t-86.5 108.5t-56 129t-20 144zM294 514q0 -84 29 -151.5t78.5 -115t116 -73.5 t142.5 -26t143 28.5t117 77.5t79 114.5t29 139.5v380h-351q-195 0 -289 -94.5t-94 -279.5z" />
<glyph unicode="&#x53b;" horiz-adv-x="1336" d="M160 0v1466h185v-544q50 87 169 134q98 39 196 39q236 0 396 -173t160 -419v-123h-187v146q0 154 -96 270q-105 127 -271 127q-159 0 -263 -117.5t-104 -299.5v-506h-185z" />
<glyph unicode="&#x53c;" horiz-adv-x="1089" d="M160 0v1466h186v-1293h693v-173h-879z" />
<glyph unicode="&#x53d;" horiz-adv-x="1672" d="M160 0v1466h185v-404h479v-563q0 -175 66 -263.5t206 -88.5q120 0 182 99q59 93 59 258v558h185v-578q0 -203 -93 -341q-114 -169 -336 -169q-221 0 -343 153q-111 139 -111 357v405h-294v-889h-185z" />
<glyph unicode="&#x53e;" horiz-adv-x="1539" d="M111 1062v404h185v-230h139q64 60 137.5 107.5t152 81t160 51t162.5 17.5q119 0 215.5 -18t184.5 -53l-59 -186q-35 19 -80.5 34.5t-93.5 26.5t-94.5 17t-85.5 6q-85 0 -168 -23.5t-160 -68.5v-1q165 -18 292.5 -70.5t214 -135t131 -194t44.5 -247.5q0 -122 -37.5 -231.5 t-113.5 -193t-191.5 -132.5t-271.5 -49q-137 0 -251.5 47t-197.5 131t-129 198.5t-46 249.5q0 127 36.5 244t103.5 217v1h-179zM335 600q0 -94 33 -176t91.5 -143.5t139.5 -97t177 -35.5q91 0 169 33.5t135.5 92t90 137.5t32.5 169q0 94 -33 181t-112.5 154t-213 107 t-334.5 40q-80 -94 -127.5 -211t-47.5 -251z" />
<glyph unicode="&#x53f;" horiz-adv-x="1386" d="M140 939v527h186v-550q0 -154 96 -270q105 -127 272 -127q159 0 262.5 117.5t103.5 299.5v126h186v-1062h-186v520q-50 -87 -169 -134q-98 -39 -196 -39q-235 0 -395 173t-160 419z" />
<glyph unicode="&#x540;" horiz-adv-x="1170" d="M109 693v173h393q116 0 183 44q79 52 79 162q0 102 -66 161.5t-166 59.5h-423v173h427q177 0 296 -101q130 -110 130 -293q0 -94 -53 -169t-132 -106q86 -26 161 -143q82 -127 82 -269v-385h-186v363q0 133 -85 228q-91 102 -237 102h-403z" />
<glyph unicode="&#x541;" horiz-adv-x="1444" d="M136 265q0 124 103 211t240 87q97 0 217 -45q110 -42 214 -110q90 106 141 231q57 139 57 284q0 159 -115.5 277.5t-272.5 118.5q-168 0 -279 -124q-106 -119 -106 -283v-46h-185v50q0 232 168.5 403.5t398.5 171.5q227 0 402 -168t175 -396q0 -171 -69 -336 q-62 -149 -177 -283q66 -52 138 -116t97 -86l-120 -146q-68 61 -135 123q-61 54 -111 94q-110 -94 -235.5 -149t-220.5 -55q-130 0 -227.5 86.5t-97.5 205.5zM322 270q0 -57 54 -94q45 -31 93 -31q59 0 141 34q90 37 168 100q-76 49 -157 79.5t-144 30.5q-51 0 -97 -28 q-58 -35 -58 -91z" />
<glyph unicode="&#x542;" horiz-adv-x="1478" d="M70 776v149q0 238 167 404q163 162 386 162q208 0 374 -157q179 -169 179 -409v-752h252v-173h-438v912q0 183 -115 300q-106 108 -252 108q-154 0 -257 -106q-110 -114 -110 -302v-136h-186z" />
<glyph unicode="&#x543;" horiz-adv-x="1406" d="M150 0v467q0 171 50 326q47 145 135 269h-185v173h214q62 0 121 -6q127 114 279 175.5t303 61.5h189v-173h-210q-96 0 -182 -26.5t-165 -78.5q264 -80 413 -281q144 -194 144 -450v-457h-1106zM335 173h734v241q0 271 -151 436q-138 150 -378 195q-97 -116 -151 -271 t-54 -324v-277z" />
<glyph unicode="&#x544;" horiz-adv-x="1557" d="M150 565v901h185v-907q0 -196 116 -310q104 -102 253 -102q144 0 251 108q114 115 114 284v927h438v-173h-251v-748q0 -233 -164.5 -401.5t-387.5 -168.5q-221 0 -381 156q-173 169 -173 434z" />
<glyph unicode="&#x545;" horiz-adv-x="1407" d="M131 693v173h595q131 0 209.5 59t78.5 162q0 85 -68 152q-80 79 -211 79q-130 0 -213 -80q-77 -74 -77 -176h-185q0 173 137 299q141 130 342 130q195 0 330 -123q130 -118 130 -272q0 -105 -40 -183q-44 -86 -129 -119q117 -34 186 -143q61 -97 61 -210 q0 -195 -153 -327q-161 -139 -417 -139q-245 0 -401 135.5t-156 333.5h185q0 -120 101 -205q108 -91 275 -91q164 0 272 81.5t108 199.5q0 112 -80 181q-96 83 -289 83h-591z" />
<glyph unicode="&#x546;" horiz-adv-x="1333" d="M-55 1293v173h435v-912q0 -183 115 -300q106 -108 252 -108q155 0 258 106q110 113 110 302v167h185v-180q0 -238 -167 -404q-163 -162 -386 -162q-208 0 -374 157q-179 169 -179 409v752h-249z" />
<glyph unicode="&#x547;" horiz-adv-x="1385" d="M120 593q0 234 138 410q145 184 373 213l-247 103l71 173l723 -311l-72 -174l-156 69q-49 22 -128 22q-117 0 -225 -44q-129 -52 -204 -151q-89 -117 -89 -285q0 -200 107 -333q111 -138 286 -138q168 0 279 124q106 119 106 283v64h185v-68q0 -232 -168.5 -403.5 t-399.5 -171.5q-241 0 -408 174q-171 178 -171 444z" />
<glyph unicode="&#x548;" horiz-adv-x="1406" d="M150 0v901q0 266 172 434q160 156 382 156q223 0 387.5 -168.5t164.5 -401.5v-921h-187v927q0 169 -113 283q-108 109 -252 109q-148 0 -252 -102q-117 -115 -117 -310v-907h-185z" />
<glyph unicode="&#x549;" horiz-adv-x="1375" d="M120 845v71q0 232 168.5 403.5t398.5 171.5q240 0 410 -177.5t170 -440.5q0 -233 -131 -404q-136 -178 -361 -217l228 -105l-71 -173l-723 311l72 174l155 -69q49 -22 128 -22q117 0 225 44q129 52 204 151q89 117 89 285q0 198 -107 332q-111 139 -285 139 q-168 0 -279 -124q-106 -119 -106 -283v-67h-185z" />
<glyph unicode="&#x54a;" horiz-adv-x="1502" d="M70 776v136q0 252 180.5 415.5t452.5 163.5q288 0 468.5 -159.5t180.5 -416.5v-915h-186v892q0 182 -108.5 304.5t-254.5 122.5v-858h-185v858q-143 0 -249 -114q-114 -123 -114 -315v-114h-185z" />
<glyph unicode="&#x54b;" horiz-adv-x="1445" d="M150 0v303h186v-137q38 -9 78 -9q115 0 239 57q114 53 161 114q0 152 -108 245q-101 87 -254 87q-53 0 -112.5 -8t-114.5 -24q-38 66 -56.5 139t-18.5 157q0 228 170.5 397.5t399.5 169.5t402 -171t173 -391q0 -237 -143 -460q-133 -208 -313 -296h456v-173h-1145z M336 912q0 -16 3 -39t9 -48q12 2 42 4q60 5 89 5q186 0 321 -101.5t153 -246.5q69 74 112 191t43 247q0 156 -113 274q-116 121 -275 121q-161 0 -272.5 -116.5t-111.5 -290.5z" />
<glyph unicode="&#x54c;" horiz-adv-x="1565" d="M150 0v901q0 266 172 434q160 156 382 156q223 0 387.5 -168.5t164.5 -401.5v-396h259v-173h-259v-352h-187v927q0 169 -113 283q-108 109 -252 109q-148 0 -252 -102q-117 -115 -117 -310v-907h-185z" />
<glyph unicode="&#x54d;" horiz-adv-x="1406" d="M150 565v901h185v-907q0 -196 116 -310q104 -102 253 -102q144 0 251 108q114 115 114 284v927h187v-921q0 -233 -150 -379q-179 -191 -402 -191q-221 0 -381 156q-173 169 -173 434z" />
<glyph unicode="&#x54e;" horiz-adv-x="1479" d="M70 939v123h187v-146q0 -154 96 -270q105 -127 271 -127q159 0 263 117t104 300v530h186v-1293h252v-173h-438v520q-50 -87 -169 -134q-98 -39 -196 -39q-236 0 -396 173t-160 419z" />
<glyph unicode="&#x54f;" horiz-adv-x="1281" d="M80 471h176q2 -65 32.5 -128t82 -106t120.5 -65.5t147 -22.5t147.5 13.5t122 44.5t83 80t30.5 121t-30.5 123.5t-83 85.5t-122 50t-147.5 16q-99 0 -190 20.5t-161 67t-111.5 121.5t-41.5 185q0 89 37.5 164.5t104 131t159 87t203.5 31.5q121 0 217.5 -33.5t163.5 -92.5 t103 -139t36 -165h-178q-4 52 -28 105.5t-67.5 87.5t-105.5 50t-141 16q-78 0 -138 -18.5t-101.5 -51.5t-63 -77.5t-21.5 -95.5q0 -48 13.5 -89t49.5 -70t99 -45.5t162 -16.5q132 0 236 -32.5t177 -91.5t111.5 -141.5t38.5 -182.5t-40 -180t-113.5 -136.5t-177.5 -86.5 t-232 -30t-231 38t-176 105t-112 157.5t-39 195.5z" />
<glyph unicode="&#x550;" horiz-adv-x="1326" d="M150 0v895q0 257 159.5 426.5t390.5 169.5q236 0 396 -173t160 -419v-123h-187v146q0 154 -96 270q-105 127 -271 127q-159 0 -263 -117.5t-104 -299.5v-902h-185z" />
<glyph unicode="&#x551;" horiz-adv-x="1387" d="M121 693v173h235q-39 23 -72.5 95.5t-33.5 136.5q0 154 137 271q143 122 342 122q195 0 330 -123q130 -118 130 -272q0 -105 -40 -181q-44 -83 -129 -121q117 -34 186 -143q61 -97 61 -210q0 -195 -153 -327q-161 -139 -417 -139q-245 0 -401 135.5t-156 333.5h185 q0 -120 101 -205q108 -91 275 -91q164 0 272 81.5t108 199.5q0 113 -79 181q-96 83 -290 83h-591zM435 1088q0 -88 73 -151q82 -71 217 -71q131 0 210 72q69 63 69 149q0 85 -68 152q-80 79 -211 79q-128 0 -213 -75q-77 -68 -77 -155z" />
<glyph unicode="&#x552;" horiz-adv-x="946" d="M160 0v1466h185v-404h551v-174h-551v-888h-185z" />
<glyph unicode="&#x553;" horiz-adv-x="1536" d="M100 740q0 244 161 397t415 153v176h185v-176q261 0 421 -160q154 -154 154 -390q0 -233 -147 -386q-158 -165 -428 -165v-189h-185v189q-250 0 -413 153t-163 398zM293 740q0 -174 102.5 -278.5t280.5 -104.5v766q-173 0 -278 -103t-105 -280zM861 356q179 0 281 102 t102 282q0 175 -97 277q-102 107 -286 107v-768z" />
<glyph unicode="&#x554;" horiz-adv-x="1350" d="M58 126v173h129v694q0 200 137 341q147 151 380 151q234 0 378 -152q134 -141 134 -341q0 -204 -135 -342q-145 -148 -384 -148q-113 0 -189.5 32.5t-135.5 98.5v-334h859v-173h-859v-132h-185v132h-129zM372 994q0 -136 90.5 -227.5t240.5 -91.5q149 0 240 93 q87 89 87 226t-87 226q-91 93 -240 93q-150 0 -240.5 -91.5t-90.5 -227.5z" />
<glyph unicode="&#x555;" horiz-adv-x="1546" d="M100 714q0 359 187 570q184 207 487 207q290 0 481 -213t191 -547q0 -328 -197 -544q-193 -212 -476 -212q-289 0 -484 223q-189 216 -189 516zM292 711q0 -259 135 -413q132 -151 345 -151q217 0 346 149q136 157 136 436q0 265 -133 426t-346 161q-214 0 -339 -137 q-144 -157 -144 -471z" />
<glyph unicode="&#x556;" horiz-adv-x="1598" d="M120 517v39h186v-32q0 -74 33 -142t88.5 -120t127.5 -83.5t150 -31.5v742q-408 0 -408 282q0 152 102.5 223.5t316.5 71.5h174v-404q133 0 242 -38t185.5 -108t118.5 -169.5t42 -221.5q0 -127 -49 -229t-137.5 -173.5t-213 -110t-275.5 -38.5q-156 0 -282 37.5 t-215 107.5t-137.5 170.5t-48.5 227.5zM481 1170q0 -30 11 -51.5t37.5 -34.5t69.5 -17.5t106 -4.5v228q-63 0 -105.5 -6t-69 -20t-38 -37t-11.5 -57zM890 147q90 0 164.5 26.5t127 75.5t81.5 118t29 154q0 88 -28 156t-80.5 114.5t-127 70.5t-166.5 24v-739z" />
<glyph unicode="&#x559;" horiz-adv-x="535" d="M162 970v205q0 100 37 172q41 80 124 118l48 -77q-56 -25 -83 -73.5t-27 -139.5h98v-205h-197z" />
<glyph unicode="&#x55a;" horiz-adv-x="535" d="M163 1048q56 25 83 73.5t27 139.5h-98v205h197v-205q0 -100 -37 -172q-41 -80 -124 -118z" />
<glyph unicode="&#x55b;" horiz-adv-x="338" d="M-3 1187l190 387l189 -30l-237 -402z" />
<glyph unicode="&#x55c;" horiz-adv-x="468" d="M-5 1247q0 24 2.5 40t9.5 33q28 66 102 114q26 17 134 68q78 37 106 71q13 16 18.5 33.5t5.5 34.5q0 19 -1.5 26t-4.5 11l102 18q4 -22 5 -36q5 -42 5 -75q0 -91 -76 -152q-35 -28 -156 -87q-98 -48 -124 -91q-5 -7 -7 -21.5t-2 -27.5q0 -24 0.5 -30t2.5 -10l-108 -25 q-5 20 -7 33q-7 40 -7 73z" />
<glyph unicode="&#x55d;" horiz-adv-x="458" d="M22 1512l182 52l236 -446l-148 -56z" />
<glyph unicode="&#x55e;" horiz-adv-x="561" d="M7 1395q0 134 94 221q87 80 204 80q121 0 188 -74q51 -57 51 -119q0 -115 -75 -177q-61 -51 -145 -51v122q43 0 67.5 19t24.5 63q0 34 -24 58q-31 31 -93 31q-60 0 -108 -41q-55 -47 -55 -122q0 -60 10 -108q5 -36 32 -100l-105 -52q-30 46 -44 101q-22 72 -22 149z" />
<glyph unicode="&#x55f;" horiz-adv-x="1148" d="M167 1556v388h141v-254h827v-134h-968z" />
<glyph unicode="&#x561;" horiz-adv-x="1641" d="M125 333v729h171v-699q0 -119 49 -177q46 -54 133 -54q112 0 177 73q72 81 72 240v617h173v-690q0 -123 42 -181.5t139 -58.5q107 0 175 76q77 87 77 253v601h173v-1062h-155v149q-49 -80 -128.5 -126.5t-180.5 -46.5q-111 0 -182.5 46.5t-105.5 139.5 q-120 -186 -315 -186q-155 0 -233 86q-81 89 -81 271z" />
<glyph unicode="&#x562;" d="M135 -407v1469h153v-154q57 83 128 126q85 52 196 52q162 0 253 -92q95 -96 95 -279v-393h-172v336q0 138 -54 205.5t-155 67.5q-121 0 -195 -79q-78 -83 -78 -231v-466h728v-155h-728v-407h-171z" />
<glyph unicode="&#x563;" horiz-adv-x="1181" d="M69 558q0 231 113 376q118 152 319 152q98 0 176 -47q71 -43 120 -121v144h158v-907h196v-155h-196v-407h-175v519q-46 -63 -116.5 -99.5t-151.5 -36.5q-177 0 -301 140q-142 160 -142 442zM248 538q0 -177 65 -288q74 -126 215 -126q114 0 188 97q81 107 81 295 q0 181 -63 290q-46 80 -125 116q-48 22 -87 22q-139 0 -210 -117q-64 -106 -64 -289z" />
<glyph unicode="&#x564;" horiz-adv-x="1181" d="M135 0v1062h153v-156q55 84 127 128q84 52 197 52q167 0 259 -100q89 -97 89 -266v-565h191v-155h-189v-407h-174v1065q0 133 -50 201q-53 72 -159 72q-112 0 -183 -66q-90 -83 -90 -254v-611h-171z" />
<glyph unicode="&#x565;" d="M130 356v1110h171v-404h713v-159h-713v-508q0 -120 48 -188q54 -76 161 -76q134 0 206 90q67 83 67 223v177h172v-621h-153v155q-58 -87 -135 -131q-84 -48 -192 -48q-162 0 -252 95q-93 98 -93 285z" />
<glyph unicode="&#x566;" horiz-adv-x="1149" d="M69 541q0 235 122 390t308 155q192 0 301 -166v142h155v-1314h194v-155h-367v520q-40 -59 -114 -98t-155 -39q-187 0 -312 149q-132 158 -132 416zM247 534q0 -195 81 -306q76 -104 199 -104q116 0 189 96q81 106 81 298q0 202 -83 318q-77 108 -198 108q-119 0 -190 -98 q-79 -109 -79 -312z" />
<glyph unicode="&#x567;" horiz-adv-x="910" d="M135 0v1466h185v-404h590v-155h-590v-752h467v-155h-652z" />
<glyph unicode="&#x568;" d="M135 -407v1469h153v-156q119 180 324 180q154 0 244 -84q104 -97 104 -294v-708h-172v649q0 140 -51 211t-160 71q-106 0 -178 -64q-93 -83 -93 -248v-871h748v-155h-919z" />
<glyph unicode="&#x569;" horiz-adv-x="1366" d="M135 -407v1469h153v-173q82 101 202 151q110 46 243 46q171 0 293 -88t146 -235q5 -27 8.5 -51t3.5 -56h152v-155h-155v-183q0 -136 -91 -236q-96 -106 -243 -106q-156 0 -256 99q-96 95 -96 234q0 154 98.5 250.5t251.5 96.5h164q0 8 -2 25.5t-4 25.5q-18 98 -96 160 q-83 65 -205 65q-151 0 -273.5 -110.5t-122.5 -249.5v-979h-171zM671 309q0 -70 42 -119q50 -58 139 -58q67 0 112 53t45 139v177h-156q-86 0 -134 -51t-48 -141z" />
<glyph unicode="&#x56a;" horiz-adv-x="1205" d="M76 547q0 220 124 364q130 151 341 151h295v404h172v-404h196v-155h-196v-388q0 -238 -133.5 -390.5t-336.5 -152.5q-197 0 -329.5 163.5t-132.5 407.5zM249 546q0 -166 77 -285q84 -130 216 -130q134 0 217 119q77 111 77 273v384h-292q-148 0 -221.5 -95t-73.5 -266z " />
<glyph unicode="&#x56b;" d="M135 -407v1873h171v-533q116 153 306 153q154 0 244 -84q104 -97 104 -294v-708h-172v649q0 140 -51 211t-160 71q-106 0 -178 -64q-93 -83 -93 -248v-1026h-171z" />
<glyph unicode="&#x56c;" horiz-adv-x="581" d="M135 -407v1469h171v-1314h275v-155h-446z" />
<glyph unicode="&#x56d;" horiz-adv-x="1651" d="M135 -407v1873h171v-535q64 87 158 126q69 29 141 29q128 0 214 -87q94 -95 94 -259l-6 -319q0 -137 23 -193q39 -96 159 -96q127 0 195 102q59 89 59 225v603h173v-1062h-155v149q-46 -76 -123 -122q-86 -51 -189 -51q-179 0 -256 127q-58 96 -58 261l5 349 q0 102 -40 158q-43 60 -123 60q-118 0 -192 -80q-79 -85 -79 -234v-1024h-171z" />
<glyph unicode="&#x56e;" horiz-adv-x="1131" d="M77 537q0 213 122 363t285 150l-235 163l220 317l121 -90l-124 -182l283 -196h352v-155h-208q63 -59 101 -158t38 -208q0 -231 -136 -396q-139 -169 -341 -169q-206 0 -342 161t-136 400zM254 534q0 -168 84.5 -285t216.5 -117q134 0 219 125q79 116 79 282q0 93 -43 187 q-51 113 -152 186l-89 -1q-140 0 -227.5 -104.5t-87.5 -272.5z" />
<glyph unicode="&#x56f;" d="M125 354v1112h171v-1053q0 -141 51 -211.5t161 -70.5q106 0 178 64q92 82 92 248v619h172v-1469h-172v538q-114 -155 -305 -155q-154 0 -244 84q-104 97 -104 294z" />
<glyph unicode="&#x570;" d="M135 0v1466h171v-533q116 153 306 153q154 0 244 -84q104 -97 104 -294v-708h-172v649q0 140 -51 211t-160 71q-106 0 -178 -64q-93 -83 -93 -248v-619h-171z" />
<glyph unicode="&#x571;" horiz-adv-x="1054" d="M77 363q0 106 32.5 200.5t88 179.5t130.5 164t160 156l-234 150l220 317l121 -90l-124 -182l269 -196l-129 -104q69 -26 127 -77t100.5 -116.5t66.5 -139.5t24 -146v-479h-153v156q-33 -50 -70 -84t-81 -56t-95.5 -31.5t-114.5 -9.5q-75 0 -137 31t-106.5 84t-69.5 123.5 t-25 149.5zM249 404q0 -55 15.5 -104.5t44 -87t68.5 -59.5t88 -22q69 0 123 21.5t92 61t58 94.5t20 122v89q0 57 -20 110.5t-55 99t-83.5 81.5t-105.5 57q-57 -57 -102 -110.5t-77 -108.5t-49 -114.5t-17 -129.5z" />
<glyph unicode="&#x572;" horiz-adv-x="1158" d="M135 0v1062h153v-156q55 84 127 128q84 52 197 52q167 0 259 -100q89 -97 89 -266v-960h198v-167h-370v1065q0 133 -50 201q-53 72 -159 72q-112 0 -183 -66q-90 -83 -90 -254v-611h-171z" />
<glyph unicode="&#x573;" horiz-adv-x="1067" d="M57 907v155h211q89 187 245 295.5t329 108.5h79v-155h-95q-101 0 -210 -68q-118 -74 -175 -181q191 -6 337 -139q164 -150 164 -394v-529h-153v157q-45 -79 -123 -125q-97 -57 -242 -57q-140 0 -237 111.5t-97 279.5q0 120 15 215q24 149 92 326h-140zM262 404 q0 -110 56 -188q61 -85 159 -85q130 0 211.5 78.5t81.5 212.5v147q0 159 -124 255q-114 88 -281 88q-17 -47 -34 -93q-31 -86 -46 -167q-23 -120 -23 -248z" />
<glyph unicode="&#x574;" d="M125 354v708h171v-649q0 -141 51 -211.5t161 -70.5q106 0 178 64q92 82 92 248v1023h368v-155h-196v-1311h-153v156q-119 -180 -324 -180q-154 0 -244 84q-104 97 -104 294z" />
<glyph unicode="&#x575;" horiz-adv-x="469" d="M5 -267h47q57 5 83.5 41.5t26.5 108.5v1179h172v-1206q0 -137 -65 -200t-183 -63h-81v140z" />
<glyph unicode="&#x576;" d="M-71 1311v155h367v-1053q0 -141 51 -211.5t161 -70.5q106 0 178 64q92 82 92 248v619h172v-1062h-153v156q-119 -180 -324 -180q-154 0 -244 84q-104 97 -104 294v957h-196z" />
<glyph unicode="&#x577;" horiz-adv-x="823" d="M-41 -255q0 56 26.5 112t70 112t99 113t113 115t113 118t99 123t70 129t26.5 136q0 48 -16.5 89.5t-45.5 72t-70 48.5t-89 18q-30 0 -59 -8.5t-53.5 -22.5t-42.5 -32.5t-25 -39.5l-135 60q13 40 45.5 76t78 63t100.5 43t113 16q78 0 145 -29t116.5 -81t77.5 -124t28 -157 q0 -71 -26 -140.5t-68.5 -136.5t-97 -130.5t-111 -122.5t-111 -112.5t-97.5 -100.5t-69 -86.5t-26 -70.5q0 -26 14.5 -36.5t32.5 -10.5h541v-155h-587q-36 0 -68.5 11t-57 30.5t-39.5 47.5t-15 63z" />
<glyph unicode="&#x578;" d="M135 0v1062h153v-156q119 180 324 180q154 0 244 -84q104 -97 104 -294v-708h-172v649q0 140 -51 211t-160 71q-106 0 -178 -64q-93 -83 -93 -248v-619h-171z" />
<glyph unicode="&#x579;" horiz-adv-x="595" d="M-3 -264q0 84 21.5 166t59 164t88 165t108.5 168l-58 43q-54 40 -82 100.5t-28 129.5q0 57 19 113t54 104l173 230l120 -93l-155 -207q-45 -60 -45 -116q0 -45 20.5 -81.5t65.5 -71.5l147 -112q-51 -74 -108 -156.5t-106 -165t-81 -162t-32 -146.5q0 -25 7 -42.5 t36 -17.5h362v-155h-400q-33 0 -66.5 9.5t-60 27.5t-43 44.5t-16.5 61.5z" />
<glyph unicode="&#x57a;" horiz-adv-x="1641" d="M125 330v732h171v-698q0 -108 37 -164q44 -67 140 -67q130 0 197 87q57 74 57 195v647h173v-736q0 -83 46.5 -138.5t125.5 -55.5q119 0 185 76q76 88 76 275v579h173v-1469h-173v529q-110 -146 -290 -146q-103 0 -175 43q-77 46 -116 142q-65 -102 -153 -148 q-72 -37 -160 -37q-160 0 -237 90.5t-77 263.5z" />
<glyph unicode="&#x57b;" horiz-adv-x="887" d="M32 -257q0 56 38 129q33 64 89 128q47 54 81 116q51 93 51 171q0 46 -18 85t-62 91q-56 66 -76 97q-43 66 -59 136q-8 37 -8 68q0 133 113 229q106 90 233 90q165 0 272 -81q132 -100 132 -303q0 -129 -84 -272q-65 -110 -187 -238q-97 -95 -193 -189 q-77 -76 -109.5 -123t-32.5 -87q0 -20 15 -31t36 -11h534v-155h-590q-80 0 -131 51q-44 44 -44 99zM238 765q0 -15 3 -30q10 -55 73 -127q69 -80 91 -149q7 -22 10.5 -46.5t3.5 -51.5q0 -48 -13 -96t-40 -91q76 84 105 119q76 93 121 182q59 116 59 214q0 42 -10 79 q-23 91 -94 130q-52 29 -127 29q-68 0 -122 -44q-60 -49 -60 -118z" />
<glyph unicode="&#x57c;" horiz-adv-x="1141" d="M135 0v1062h153v-156q119 180 324 180q149 0 267 -109q127 -117 127 -285q0 -178 -50.5 -296.5t-175.5 -240.5h282v-155h-488v125q129 108 185.5 231t56.5 307q0 118 -68 193t-171 75q-106 0 -178 -64q-93 -83 -93 -248v-619h-171z" />
<glyph unicode="&#x57d;" d="M125 354v708h171v-649q0 -141 51 -211.5t161 -70.5q106 0 178 64q92 82 92 248v619h172v-1062h-153v156q-119 -180 -324 -180q-154 0 -244 84q-104 97 -104 294z" />
<glyph unicode="&#x57e;" horiz-adv-x="1149" d="M125 354v708h171v-649q0 -141 51 -211.5t161 -70.5q106 0 178 64q92 82 92 248v1023h172v-1718h196v-155h-368v538q-114 -155 -305 -155q-154 0 -244 84q-104 97 -104 294z" />
<glyph unicode="&#x57f;" horiz-adv-x="1631" d="M125 334v728h171v-706q0 -103 42 -160q47 -64 145 -64q107 0 173 75q71 81 71 229v626h173v-136q40 73 129 122q81 44 150 44q155 0 241 -97t86 -268v-727h-173v694q0 103 -43 162q-48 67 -143 67q-100 0 -173.5 -78.5t-73.5 -188.5v-656h-173v125q-51 -68 -113 -104 q-78 -45 -180 -45q-156 0 -232.5 92t-76.5 266z" />
<glyph unicode="&#x580;" d="M135 -407v1469h153v-156q119 180 324 180q154 0 244 -84q104 -97 104 -294v-708h-172v649q0 140 -51 211t-160 71q-106 0 -178 -64q-93 -83 -93 -248v-1026h-171z" />
<glyph unicode="&#x581;" horiz-adv-x="1094" d="M60 537q0 118 32.5 219t91 174t139.5 114.5t179 41.5q179 0 298 -152v128h159v-918q0 -129 -30.5 -235t-93.5 -182t-159 -117.5t-228 -41.5h-88v145h87q77 0 139 22.5t106 72.5t67.5 131.5t23.5 199.5q-112 -139 -282 -139q-99 0 -180 39.5t-139 111t-90 170t-32 216.5z M238 550q0 -196 72 -298.5t207 -102.5q65 0 117 26.5t88.5 77.5t56 124.5t19.5 166.5q0 90 -20 162.5t-57 123.5t-89.5 79t-117.5 28q-63 0 -114 -27t-87 -77t-55.5 -121.5t-19.5 -161.5z" />
<glyph unicode="&#x582;" horiz-adv-x="757" d="M140 0v1062h171v-907h396v-155h-567z" />
<glyph unicode="&#x583;" horiz-adv-x="1631" d="M125 334v728h171v-706q0 -103 42 -160q47 -64 145 -64q107 0 173 75q71 81 71 229v1030h173v-500q47 70 134 102q66 24 145 24q155 0 241 -97t86 -268v-727h-173v694q0 103 -43 162q-48 67 -143 67q-102 0 -174.5 -69t-72.5 -178v-1083h-173v532q-51 -68 -113 -104 q-78 -45 -180 -45q-156 0 -232.5 92t-76.5 266z" />
<glyph unicode="&#x584;" horiz-adv-x="1159" d="M30 0v155h138v907h154v-138h1q28 41 57.5 71.5t64 50.5t75 30t91.5 10q97 0 175.5 -29.5t133 -82.5t84 -126t29.5 -159q0 -84 -35.5 -154t-95.5 -121t-138.5 -79.5t-165.5 -28.5q-34 0 -69.5 7t-69.5 21.5t-64.5 35.5t-54.5 50h-1v-265h695v-155h-695v-407h-171v407h-138 zM339 675q0 -53 20 -97t54 -76t79 -50t95 -18q57 0 106 18t85 51.5t57 80.5t21 106q0 55 -20.5 102t-56 81t-83 53t-102.5 19q-59 0 -106.5 -19.5t-80.5 -55.5t-50.5 -85.5t-17.5 -109.5z" />
<glyph unicode="&#x585;" horiz-adv-x="1095" d="M70 531q0 262 133 411q129 144 345 144q213 0 343 -142q134 -147 134 -398q0 -287 -134 -434q-124 -136 -343 -136q-218 0 -345 141q-133 147 -133 414zM248 531q0 -197 84 -305q80 -102 216 -102q135 0 215 102q85 109 85 311q0 191 -85 298q-81 102 -215 102 q-135 0 -214 -99q-86 -107 -86 -307z" />
<glyph unicode="&#x586;" horiz-adv-x="1478" d="M76 530v89h172v-82q0 -167 120 -286t292 -119v775q-186 0 -294 72.5t-108 200.5q0 138 108.5 212t302.5 74h163v-404q259 0 419 -136q168 -143 168 -392q0 -244 -156 -398q-161 -159 -431 -159v-384h-172v384q-252 0 -418 158t-166 395zM430 1186q0 -62 59.5 -93 t170.5 -31v249q-117 0 -173.5 -28.5t-56.5 -96.5zM832 132q180 0 297 110t117 289q0 173 -111.5 274.5t-302.5 101.5v-775z" />
<glyph unicode="&#x587;" horiz-adv-x="1397" d="M125 356v1110h171v-1071q0 -120 48 -188q54 -76 161 -76q134 0 206 90q67 83 67 223v618h172v-907h397v-155h-550v155q-58 -87 -135 -131q-84 -48 -192 -48q-162 0 -252 95q-93 98 -93 285z" />
<glyph unicode="&#x589;" horiz-adv-x="535" d="M178 0v205h196v-205h-196zM178 857v205h196v-205h-196z" />
<glyph unicode="&#x58a;" horiz-adv-x="644" d="M38 496l98 190q18 -37 104 -84q97 -53 180 -53q75 0 133 10t102 33l30 -148q-72 -39 -154.5 -56.5t-179.5 -17.5q-81 0 -176 41q-84 37 -137 85z" />
<glyph unicode="&#x2000;" horiz-adv-x="972" />
<glyph unicode="&#x2001;" horiz-adv-x="1944" />
<glyph unicode="&#x2002;" horiz-adv-x="972" />
<glyph unicode="&#x2003;" horiz-adv-x="1944" />
<glyph unicode="&#x2004;" horiz-adv-x="648" />
<glyph unicode="&#x2005;" horiz-adv-x="486" />
<glyph unicode="&#x2006;" horiz-adv-x="324" />
<glyph unicode="&#x2007;" horiz-adv-x="324" />
<glyph unicode="&#x2008;" horiz-adv-x="243" />
<glyph unicode="&#x2009;" horiz-adv-x="388" />
<glyph unicode="&#x200a;" horiz-adv-x="108" />
<glyph unicode="&#x2010;" horiz-adv-x="595" d="M82 440v181h492v-181h-492z" />
<glyph unicode="&#x2011;" horiz-adv-x="595" d="M82 440v181h492v-181h-492z" />
<glyph unicode="&#x2012;" horiz-adv-x="595" d="M82 440v181h492v-181h-492z" />
<glyph unicode="&#x2013;" horiz-adv-x="961" d="M91 440v181h836v-181h-836z" />
<glyph unicode="&#x2014;" horiz-adv-x="1121" d="M91 440v181h974v-181h-974z" />
<glyph unicode="&#x2018;" horiz-adv-x="535" d="M162 970v205q0 100 37 172q41 80 124 118l48 -77q-56 -25 -83 -73.5t-27 -139.5h98v-205h-197z" />
<glyph unicode="&#x2019;" horiz-adv-x="535" d="M163 1048q56 25 83 73.5t27 139.5h-98v205h197v-205q0 -100 -37 -172q-41 -80 -124 -118z" />
<glyph unicode="&#x201a;" horiz-adv-x="486" d="M163 -213q56 25 83 73.5t27 139.5h-98v205h197v-205q0 -101 -37 -172q-41 -80 -124 -118z" />
<glyph unicode="&#x201c;" horiz-adv-x="871" d="M162 970v205q0 100 37 172q41 80 124 118l48 -77q-56 -25 -83 -73.5t-27 -139.5h98v-205h-197zM514 970v205q0 100 37 172q41 80 124 118l48 -77q-56 -25 -83 -73.5t-27 -139.5h98v-205h-197z" />
<glyph unicode="&#x201d;" horiz-adv-x="871" d="M161 1046q56 25 83 73.5t27 139.5h-98v205h197v-205q0 -100 -37 -172q-41 -80 -124 -118zM513 1046q56 25 83 73.5t27 139.5h-98v205h197v-205q0 -100 -37 -172q-41 -80 -124 -118z" />
<glyph unicode="&#x201e;" horiz-adv-x="871" d="M161 -213q56 25 83 73.5t27 139.5h-98v205h197v-205q0 -100 -37 -172q-41 -80 -124 -118zM513 -213q56 25 83 73.5t27 139.5h-98v205h197v-205q0 -100 -37 -172q-41 -80 -124 -118z" />
<glyph unicode="&#x2022;" horiz-adv-x="707" d="M109 703q0 51 19.5 96t53.5 78t78.5 52.5t94.5 19.5t95 -19.5t78.5 -53t53 -78.5t19.5 -95t-19.5 -94.5t-53 -78.5t-78 -53.5t-95.5 -19.5q-50 0 -95 19.5t-78.5 53t-53 78t-19.5 95.5z" />
<glyph unicode="&#x2024;" horiz-adv-x="535" d="M179 0v205h196v-205h-196z" />
<glyph unicode="&#x2026;" horiz-adv-x="1906" d="M229 0v205h197v-205h-197zM885 0v205h197v-205h-197zM1540 0v205h198v-205h-198z" />
<glyph unicode="&#x202f;" horiz-adv-x="388" />
<glyph unicode="&#x2030;" horiz-adv-x="2524" d="M114 1114q0 163 74 266q79 111 222 111q137 0 219 -97q87 -104 87 -291q0 -180 -85 -283q-84 -104 -219 -104q-133 0 -212 97q-86 107 -86 301zM265 1096q0 -134 42 -198q37 -58 108 -58q69 0 107 56q43 65 43 214q0 133 -42 198q-38 59 -108 59q-68 0 -106 -56 q-44 -68 -44 -215zM416 -54l770 1545h140l-767 -1545h-143zM1024 344q0 164 74 267q80 110 223 110q137 0 219 -97q87 -104 87 -291q0 -181 -84 -284t-221 -103q-133 0 -212 97q-86 107 -86 301zM1175 326q0 -133 42 -197q39 -59 108 -59q70 0 108 56q43 65 43 214 q0 133 -42 198q-38 59 -108 59q-69 0 -107 -56q-44 -68 -44 -215zM1818 344q0 164 74 267q80 110 223 110q137 0 219 -97q87 -104 87 -291q0 -181 -84 -284t-221 -103q-133 0 -212 97q-86 107 -86 301zM1969 326q0 -133 42 -197q39 -59 108 -59q70 0 108 56q43 65 43 214 q0 133 -42 198q-38 59 -108 59q-69 0 -107 -56q-44 -68 -44 -215z" />
<glyph unicode="&#x2039;" horiz-adv-x="682" d="M119 528l306 456h142l-251 -456l249 -456h-140z" />
<glyph unicode="&#x203a;" horiz-adv-x="682" d="M119 984h142l306 -456l-306 -456h-140l249 456z" />
<glyph unicode="&#x205f;" horiz-adv-x="486" />
<glyph unicode="&#x2122;" horiz-adv-x="1792" d="M113 1331v134h653v-134h-256v-711h-142v711h-255zM832 620v845h140q80 -111 142 -226t106 -238q46 124 108 238t143 226h142v-845h-140v608q-60 -97 -104.5 -207t-88.5 -232h-120q-39 122 -82.5 229t-107.5 209v-607h-138z" />
<glyph unicode="&#xe000;" horiz-adv-x="1060" d="M0 1060h1060v-1060h-1060v1060z" />
<glyph unicode="&#xe002;" horiz-adv-x="1024" />
<glyph unicode="&#xfb13;" horiz-adv-x="2170" d="M125 354v708h171v-649q0 -141 51 -211.5t161 -70.5q106 0 178 64q92 82 92 248v464h-245v155h245v404h368v-155h-196v-249h441v-649q0 -141 51 -211.5t161 -70.5q106 0 178 64q92 82 92 248v619h172v-1062h-153v156q-119 -180 -324 -180q-154 0 -244 84q-104 97 -104 294 v553h-270v-907h-153v156q-119 -180 -324 -180q-154 0 -244 84q-104 97 -104 294z" />
<glyph unicode="&#xfb14;" horiz-adv-x="2170" d="M125 354v708h171v-649q0 -141 51 -211.5t161 -70.5q106 0 178 64q92 82 92 248v1023h613v-404h713v-159h-713v-508q0 -120 48 -188q54 -76 161 -76q134 0 206 90q67 83 67 223v177h172v-621h-153v155q-58 -87 -135 -131q-84 -48 -192 -48q-162 0 -252 95q-93 98 -93 285 v955h-270v-1311h-153v156q-119 -180 -324 -180q-154 0 -244 84q-104 97 -104 294z" />
<glyph unicode="&#xfb15;" horiz-adv-x="2170" d="M125 354v708h171v-649q0 -141 51 -211.5t161 -70.5q106 0 178 64q92 82 92 248v1023h613v-533q116 153 306 153q154 0 244 -84q104 -97 104 -294v-708h-172v649q0 140 -51 211t-160 71q-106 0 -178 -64q-93 -83 -93 -248v-1026h-171v1718h-270v-1311h-153v156 q-119 -180 -324 -180q-154 0 -244 84q-104 97 -104 294z" />
<glyph unicode="&#xfb16;" horiz-adv-x="2170" d="M125 354v708h171v-649q0 -141 51 -211.5t161 -70.5q106 0 178 64q92 82 92 248v464h-245v155h245v404h172v-404h441v-649q0 -141 51 -211.5t161 -70.5q106 0 178 64q92 82 92 248v619h172v-1062h-153v156q-119 -180 -324 -180q-154 0 -244 84q-104 97 -104 294v553h-270 v-1159h196v-155h-368v538q-114 -155 -305 -155q-154 0 -244 84q-104 97 -104 294z" />
<glyph unicode="&#xfb17;" horiz-adv-x="2736" d="M125 354v708h171v-649q0 -141 51 -211.5t161 -70.5q106 0 178 64q92 82 92 248v1023h623v-535q64 87 158 126q69 29 141 29q128 0 214 -87q94 -95 94 -259l-6 -319q0 -137 23 -193q39 -96 159 -96q127 0 195 102q59 89 59 225v603h173v-1062h-155v149q-46 -76 -123 -122 q-86 -51 -189 -51q-179 0 -256 127q-58 96 -58 261l5 349q0 102 -40 158q-43 60 -123 60q-118 0 -192 -80q-79 -85 -79 -234v-1024h-171v1718h-280v-1311h-153v156q-119 -180 -324 -180q-154 0 -244 84q-104 97 -104 294z" />
<glyph horiz-adv-x="1761" d="M8 526q0 187 124 326q0 92 37 172t106.5 150t149.5 107t171 37q140 126 330 126q187 0 326 -124q92 0 172 -37t150 -106.5t107 -149.5t37 -171q126 -140 126 -330q0 -187 -124 -326q0 -92 -37 -172t-106.5 -150t-149.5 -107t-171 -37q-140 -126 -330 -126 q-187 0 -326 124q-92 0 -172 37t-150 106.5t-107 149.5t-37 171q-126 140 -126 330zM134 526q0 -71 27 -139l4 11q38 98 111 171q146 146 347 146q112 0 211 -48q-25 55 -59 96q-110 128 -274 128q-146 0 -253 -99q-114 -108 -114 -266zM259 221q0 -150 106 -256 q53 -53 119 -80q-50 101 -50 214q0 152 89.5 280.5t237.5 182.5q-65 26 -137 26q-152 0 -258.5 -107t-106.5 -260zM285 967q102 49 214 49q158 0 285 -91t178 -235q26 65 26 138q0 153 -106 259t-258 106q-151 0 -259 -106q-52 -52 -80 -120zM562 102q0 -146 98 -253 q106 -115 266 -115q70 0 139 27l-11 4q-97 37 -172 112q-145 146 -145 347q0 111 48 210q-55 -25 -96 -59q-127 -109 -127 -273zM787 1291l11 -4q98 -37 172 -112q145 -146 145 -347q0 -111 -48 -210q55 25 96 59q126 110 126 272q0 147 -99 254q-105 115 -264 115 q-71 0 -139 -27zM864 224q0 -152 107 -258.5t260 -106.5q150 0 256 106q53 53 80 119q-101 -50 -214 -50q-152 0 -280.5 90.5t-182.5 236.5q-26 -65 -26 -137zM1018 385q25 -55 59 -96q110 -126 273 -126q147 0 254 98q114 105 114 265q0 71 -27 139l-4 -11 q-37 -97 -111 -171q-146 -146 -347 -146q-112 0 -211 48zM1091 490q65 -26 137 -26q151 0 258 106.5t107 260.5q0 150 -106 256q-53 53 -119 80q48 -102 48 -212q0 -154 -89.5 -284t-235.5 -181z" />
<glyph horiz-adv-x="950" d="M97 896v134h728v-326h-141v192h-587z" />
<glyph horiz-adv-x="1024" />
</font>
</defs>
</svg>
